<svg width="55" height="41" viewBox="0 0 55 41" fill="none" xmlns="http://www.w3.org/2000/svg">
<g style="mix-blend-mode:luminosity">
<path d="M53.6628 9.09002H1.25V3.544C1.25064 2.93739 1.49665 2.35479 1.93569 1.92432C2.3749 1.49369 2.97144 1.25063 3.59466 1.25H51.3181C51.9414 1.25063 52.5379 1.49369 52.9771 1.92432C53.4162 2.35482 53.6622 2.93747 53.6628 3.54411V9.09002Z" fill="white" stroke="#CCCCCC" stroke-width="0.5"/>
<path d="M51.3183 1H3.59454C2.90663 1.00067 2.24709 1.27408 1.76067 1.7602C1.27424 2.24633 1.00068 2.90547 1 3.59295V37.6942C1.00068 38.3817 1.27424 39.0409 1.76067 39.527C2.24709 40.0131 2.90663 40.2865 3.59454 40.2872H51.3183C52.0062 40.2865 52.6657 40.0131 53.1521 39.527C53.6386 39.0409 53.9121 38.3817 53.9128 37.6942V3.59295C53.9121 2.90547 53.6386 2.24633 53.1521 1.7602C52.6657 1.27408 52.0062 1.00067 51.3183 1ZM53.7556 37.6942C53.7547 38.34 53.4977 38.9591 53.0408 39.4157C52.5839 39.8723 51.9644 40.1292 51.3183 40.13H3.59454C2.94838 40.1292 2.32892 39.8723 1.87202 39.4157C1.41512 38.9591 1.15807 38.34 1.15724 37.6942V3.59295C1.15807 2.94719 1.41512 2.32811 1.87202 1.87149C2.32892 1.41487 2.94838 1.15797 3.59454 1.15715H51.3183C51.9644 1.15797 52.5839 1.41487 53.0408 1.87149C53.4977 2.32811 53.7547 2.94719 53.7556 3.59295V37.6942Z" fill="#3F3D56" stroke="#CCCCCC" stroke-width="0.5"/>
<path d="M12.7631 5.31475C12.7631 5.91655 12.2752 6.40441 11.6734 6.40441C11.0716 6.40441 10.5837 5.91655 10.5837 5.31475C10.5837 4.71295 11.0716 4.2251 11.6734 4.2251C12.2752 4.2251 12.7631 4.71295 12.7631 5.31475Z" fill="white" stroke="#999999"/>
<path d="M44.3287 5.31475C44.3287 5.91655 43.8409 6.40441 43.2391 6.40441C42.6373 6.40441 42.1494 5.91655 42.1494 5.31475C42.1494 4.71295 42.6373 4.2251 43.2391 4.2251C43.8409 4.2251 44.3287 4.71295 44.3287 5.31475Z" fill="white" stroke="#999999"/>
<path d="M16.2924 22.8012H6.82716C6.42617 22.8008 6.04173 22.6414 5.75819 22.358C5.47464 22.0746 5.31515 21.6904 5.3147 21.2897V16.8187C5.31515 16.4179 5.47464 16.0337 5.75819 15.7504C6.04173 15.467 6.42617 15.3076 6.82716 15.3071H16.2924C16.6934 15.3076 17.0778 15.467 17.3613 15.7504C17.6449 16.0337 17.8044 16.4179 17.8048 16.8187V21.2897C17.8044 21.6904 17.6449 22.0746 17.3613 22.358C17.0778 22.6414 16.6934 22.8008 16.2924 22.8012Z" fill="#EEEEEE"/>
<path d="M32.1889 22.8012H22.7236C22.3227 22.8008 21.9382 22.6414 21.6547 22.358C21.3711 22.0746 21.2116 21.6904 21.2112 21.2897V16.8187C21.2116 16.4179 21.3711 16.0337 21.6547 15.7504C21.9382 15.467 22.3227 15.3076 22.7236 15.3071H32.1889C32.5899 15.3076 32.9743 15.467 33.2578 15.7504C33.5414 16.0337 33.7009 16.4179 33.7013 16.8187V21.2897C33.7009 21.6904 33.5414 22.0746 33.2578 22.358C32.9743 22.6414 32.5899 22.8008 32.1889 22.8012Z" fill="#EEEEEE"/>
<path opacity="0.5" d="M32.1544 34.1557H22.7581C22.348 34.1552 21.9548 33.993 21.6648 33.7046C21.3748 33.4161 21.2116 33.0251 21.2112 32.6172V28.2002C21.2116 27.7923 21.3748 27.4012 21.6648 27.1128C21.9548 26.8243 22.348 26.6621 22.7581 26.6616H32.1544C32.5645 26.6621 32.9577 26.8243 33.2477 27.1128C33.5377 27.4012 33.7009 27.7923 33.7013 28.2002V32.6172C33.7009 33.0251 33.5377 33.4161 33.2477 33.7046C32.9577 33.993 32.5645 34.1552 32.1544 34.1557Z" fill="#EEEEEE"/>
<path opacity="0.5" d="M16.2579 34.1557H6.86164C6.45151 34.1552 6.0583 33.993 5.7683 33.7046C5.47829 33.4161 5.31516 33.0251 5.3147 32.6172V28.2002C5.31516 27.7923 5.47829 27.4012 5.7683 27.1128C6.0583 26.8243 6.45151 26.6621 6.86164 26.6616H16.2579C16.668 26.6621 17.0612 26.8243 17.3512 27.1128C17.6413 27.4012 17.8044 27.7923 17.8048 28.2002V32.6172C17.8044 33.0251 17.6413 33.4161 17.3512 33.7046C17.0612 33.993 16.668 34.1552 16.2579 34.1557Z" fill="#EEEEEE"/>
<path opacity="0.5" d="M48.0511 34.1557H38.6549C38.2447 34.1552 37.8515 33.993 37.5615 33.7046C37.2715 33.4161 37.1084 33.0251 37.1079 32.6172V28.2002C37.1084 27.7923 37.2715 27.4012 37.5615 27.1128C37.8515 26.8243 38.2447 26.6621 38.6549 26.6616H48.0511C48.4612 26.6621 48.8544 26.8243 49.1445 27.1128C49.4345 27.4012 49.5976 27.7923 49.5981 28.2002V32.6172C49.5976 33.0251 49.4345 33.4161 49.1445 33.7046C48.8545 33.993 48.4612 34.1552 48.0511 34.1557Z" fill="#EEEEEE"/>
<path opacity="0.5" d="M48.0511 22.8012H38.6549C38.2447 22.8008 37.8515 22.6385 37.5615 22.3501C37.2715 22.0616 37.1084 21.6706 37.1079 21.2627V16.8457C37.1084 16.4378 37.2715 16.0467 37.5615 15.7583C37.8515 15.4698 38.2447 15.3076 38.6549 15.3071H48.0511C48.4612 15.3076 48.8544 15.4698 49.1445 15.7583C49.4345 16.0467 49.5976 16.4378 49.5981 16.8457V21.2627C49.5976 21.6706 49.4345 22.0616 49.1445 22.3501C48.8545 22.6385 48.4612 22.8008 48.0511 22.8012Z" fill="#EEEEEE"/>
<path d="M10.9614 21.0902L10.9589 21.0902C10.9384 21.0903 10.9138 21.0834 10.889 21.0633L10.8888 21.0632L10.884 21.0593L9.43379 19.8598L9.43353 19.8596C9.41772 19.8466 9.40213 19.8283 9.38937 19.8045C9.37659 19.7807 9.36745 19.7527 9.3637 19.7222C9.35994 19.6917 9.36185 19.6608 9.36904 19.6316C9.37624 19.6025 9.3882 19.5772 9.4027 19.5568L8.99487 19.2675L9.4027 19.5568C9.41715 19.5364 9.43338 19.5219 9.44897 19.5121C9.46443 19.5025 9.47949 19.4974 9.49319 19.4954C9.50684 19.4935 9.52084 19.4944 9.53501 19.4985L9.67405 19.0182L9.53501 19.4985C9.54928 19.5026 9.56504 19.5104 9.58077 19.5235L9.58102 19.5237L10.5217 20.3029L10.9366 20.6465L11.2484 20.2072L13.4714 17.0755L13.4714 17.0755C13.4858 17.0551 13.502 17.0405 13.5176 17.0308C13.5331 17.0212 13.5481 17.0161 13.5618 17.0142C13.5754 17.0122 13.5894 17.0131 13.6036 17.0172C13.6178 17.0213 13.6335 17.0291 13.6492 17.0421L13.6492 17.0421C13.6817 17.0691 13.7114 17.1168 13.7191 17.18C13.7268 17.2432 13.71 17.3031 13.6801 17.3454C13.6801 17.3455 13.68 17.3456 13.68 17.3456L11.066 21.0281C11.066 21.0282 11.0659 21.0283 11.0659 21.0284C11.0489 21.052 11.0297 21.0677 11.0119 21.0772C10.9942 21.0865 10.9771 21.0903 10.9614 21.0902ZM13.7059 16.9738L13.9496 16.6796L13.9499 16.6799L13.7059 16.9738Z" fill="white" stroke="#999999"/>
<path d="M26.5612 21.4519L26.8862 21.0719L26.5612 21.4519ZM26.5612 21.4519L26.8861 21.0718M26.5612 21.4519L26.8861 21.0718M26.8861 21.0718L26.8816 21.0679L25.5077 19.8686C25.5077 19.8686 25.5076 19.8686 25.5076 19.8685C25.4803 19.8447 25.4493 19.7961 25.4412 19.7257C25.433 19.6551 25.4512 19.5901 25.4803 19.5469C25.5083 19.5051 25.5359 19.4967 25.5449 19.4953C25.5503 19.4945 25.5559 19.4947 25.5626 19.4968C25.5695 19.4989 25.5803 19.5038 25.5932 19.515L26.8861 21.0718ZM26.9282 21.0902L26.9255 21.0902L25.5934 19.5152L26.4845 20.2942L26.9118 20.6678L27.2285 20.1968L29.3347 17.0651L29.3347 17.0651C29.3485 17.0445 29.3628 17.0317 29.3741 17.0242L29.0997 16.6077L29.3741 17.0242C29.3852 17.0169 29.3939 17.0144 29.3993 17.0136C29.4046 17.0128 29.4102 17.013 29.417 17.0151C29.424 17.0172 29.4348 17.0222 29.4477 17.0334C29.4751 17.0575 29.5061 17.1062 29.5143 17.1768C29.5225 17.2474 29.5043 17.3125 29.4752 17.3559C29.4752 17.3559 29.4752 17.356 29.4752 17.356L26.9986 21.0385C26.9985 21.0386 26.9985 21.0386 26.9984 21.0387C26.9822 21.0626 26.9656 21.0759 26.9536 21.0826L27.1977 21.519L26.9536 21.0826C26.9421 21.089 26.9336 21.0903 26.9282 21.0902ZM29.7581 16.6792L29.509 16.9635L29.7577 16.679L29.7581 16.6792Z" fill="white" stroke="#999999"/>
</g>
</svg>
