<svg width="69" height="53" viewBox="0 0 69 53" fill="none" xmlns="http://www.w3.org/2000/svg">
<g style="mix-blend-mode:luminosity">
<path d="M63.1897 0.927734H50.4357C50.1239 0.927734 49.8711 1.18053 49.8711 1.49236V9.01364C49.8711 9.32548 50.1239 9.57827 50.4357 9.57827H63.1897C63.5015 9.57827 63.7543 9.32548 63.7543 9.01364V1.49236C63.7543 1.18053 63.5015 0.927734 63.1897 0.927734Z" fill="#F4F4F4"/>
<g opacity="0.04">
<path d="M63.1902 0.927734H50.4359C50.2866 0.927716 50.1434 0.986806 50.0376 1.09209C49.9317 1.19737 49.8719 1.34027 49.8711 1.48955L56.8128 6.22685L63.7544 1.48955C63.7537 1.34036 63.6939 1.19752 63.5882 1.09225C63.4824 0.986977 63.3394 0.927832 63.1902 0.927734Z" fill="#292A2E"/>
</g>
<path d="M67.5822 35.0645H51.4823C51.0886 35.0645 50.7695 35.3836 50.7695 35.7772V45.2716C50.7695 45.6653 51.0886 45.9844 51.4823 45.9844H67.5822C67.9758 45.9844 68.2949 45.6653 68.2949 45.2716V35.7772C68.2949 35.3836 67.9758 35.0645 67.5822 35.0645Z" fill="#F4F4F4"/>
<g opacity="0.04">
<path d="M67.5826 35.0645H51.4825C51.294 35.0644 51.1132 35.139 50.9796 35.2719C50.8461 35.4048 50.7705 35.5851 50.7695 35.7736L59.5322 41.7536L68.2947 35.7736C68.2937 35.5853 68.2183 35.405 68.0849 35.2721C67.9514 35.1393 67.7709 35.0646 67.5826 35.0645Z" fill="#292A2E"/>
</g>
<path d="M13.1322 14.5586H0.556697C0.249242 14.5586 0 14.8078 0 15.1153V22.5313C0 22.8388 0.249242 23.088 0.556697 23.088H13.1322C13.4397 23.088 13.6889 22.8388 13.6889 22.5313V15.1153C13.6889 14.8078 13.4397 14.5586 13.1322 14.5586Z" fill="#F4F4F4"/>
<g opacity="0.04">
<path d="M13.1323 14.5586H0.556884C0.409692 14.5586 0.268479 14.6168 0.164124 14.7206C0.0597682 14.8244 0.000759575 14.9654 0 15.1125L6.84446 19.7837L13.6889 15.1127C13.6882 14.9656 13.6293 14.8246 13.525 14.7208C13.4207 14.6169 13.2795 14.5586 13.1323 14.5586Z" fill="#292A2E"/>
</g>
<path d="M13.0521 19.7529C12.8903 19.6774 12.7301 19.5993 12.5762 19.5209C12.5562 19.5107 12.533 19.5089 12.5116 19.5159C12.4903 19.5228 12.4725 19.5379 12.4623 19.5579C12.4522 19.578 12.4503 19.6012 12.4573 19.6225C12.4642 19.6439 12.4794 19.6616 12.4994 19.6718C12.655 19.7511 12.8168 19.8299 12.9803 19.9064C13.0006 19.9154 13.0236 19.9161 13.0444 19.9083C13.0652 19.9005 13.0821 19.8849 13.0915 19.8648C13.1009 19.8447 13.102 19.8217 13.0946 19.8008C13.0872 19.7798 13.0719 19.7626 13.052 19.7529H13.0521Z" fill="#292A2E"/>
<path d="M15.5266 20.6947L15.5145 20.691C15.3483 20.6401 15.1824 20.5872 15.0216 20.5336C15.0002 20.5265 14.977 20.5282 14.9569 20.5383C14.9368 20.5483 14.9216 20.5659 14.9145 20.5872C14.9074 20.6085 14.9091 20.6318 14.9191 20.6519C14.9292 20.6719 14.9468 20.6872 14.9681 20.6943C15.1305 20.7483 15.2974 20.8016 15.4643 20.8526L15.4775 20.8567L15.4816 20.8578C15.5031 20.8634 15.5259 20.8603 15.5452 20.8492C15.5644 20.8381 15.5785 20.8198 15.5844 20.7984C15.5903 20.777 15.5876 20.7541 15.5768 20.7347C15.5659 20.7153 15.5479 20.7009 15.5266 20.6947Z" fill="#292A2E"/>
<path d="M11.8775 19.1434C11.7238 19.0545 11.5714 18.9623 11.4248 18.8698C11.4154 18.8635 11.4048 18.8591 11.3937 18.857C11.3826 18.8549 11.3712 18.855 11.3601 18.8573C11.349 18.8597 11.3386 18.8642 11.3293 18.8707C11.32 18.8771 11.3121 18.8854 11.3061 18.8949C11.3 18.9045 11.296 18.9152 11.2941 18.9263C11.2923 18.9375 11.2927 18.9489 11.2953 18.9599C11.2979 18.9709 11.3027 18.9812 11.3094 18.9904C11.3161 18.9995 11.3246 19.0071 11.3343 19.0129C11.4829 19.1066 11.6371 19.2003 11.7926 19.29C11.7995 19.294 11.8069 19.297 11.8145 19.2989C11.8343 19.3038 11.8553 19.3014 11.8734 19.2922C11.8916 19.2829 11.9058 19.2674 11.9135 19.2485C11.9211 19.2296 11.9217 19.2085 11.9151 19.1892C11.9085 19.1699 11.8951 19.1537 11.8775 19.1434Z" fill="#292A2E"/>
<path d="M16.7994 21.0729C16.6271 21.023 16.4567 20.9733 16.2883 20.9238C16.2777 20.9204 16.2664 20.9192 16.2553 20.9203C16.2442 20.9214 16.2334 20.9247 16.2236 20.93C16.2137 20.9354 16.2051 20.9426 16.1982 20.9514C16.1912 20.9602 16.1861 20.9702 16.1831 20.981C16.1768 21.0025 16.1793 21.0257 16.19 21.0454C16.2007 21.0652 16.2189 21.0798 16.2404 21.0862C16.4089 21.1359 16.5796 21.1857 16.7523 21.2356L16.7554 21.2364C16.7768 21.2415 16.7994 21.2381 16.8184 21.2268C16.8373 21.2155 16.8511 21.1973 16.8568 21.176C16.8625 21.1547 16.8596 21.132 16.8489 21.1127C16.8381 21.0935 16.8202 21.0792 16.7991 21.0729H16.7994Z" fill="#292A2E"/>
<path d="M10.7651 18.4242C10.6214 18.3202 10.4801 18.2127 10.3445 18.1044C10.3269 18.0904 10.3045 18.084 10.2822 18.0865C10.2599 18.089 10.2395 18.1003 10.2255 18.1178C10.2115 18.1354 10.2051 18.1578 10.2076 18.1801C10.2101 18.2024 10.2213 18.2228 10.2389 18.2368C10.3766 18.3467 10.52 18.4558 10.6657 18.5613C10.6745 18.5676 10.6844 18.5722 10.6949 18.5749C10.714 18.5796 10.7341 18.5776 10.7518 18.5691C10.7696 18.5607 10.7838 18.5463 10.7921 18.5285C10.8004 18.5106 10.8023 18.4905 10.7973 18.4715C10.7924 18.4524 10.781 18.4357 10.7651 18.4242Z" fill="#292A2E"/>
<path d="M14.2699 20.2674C14.1049 20.2049 13.9389 20.1395 13.777 20.0728C13.7667 20.0685 13.7557 20.0664 13.7446 20.0664C13.7335 20.0664 13.7225 20.0687 13.7122 20.0729C13.702 20.0772 13.6926 20.0835 13.6848 20.0914C13.677 20.0992 13.6707 20.1086 13.6665 20.1189C13.6623 20.1292 13.6601 20.1402 13.6602 20.1513C13.6602 20.1624 13.6624 20.1734 13.6667 20.1837C13.671 20.1939 13.6772 20.2032 13.6851 20.2111C13.693 20.2189 13.7023 20.2251 13.7126 20.2294C13.8762 20.2966 14.0437 20.3627 14.21 20.4257C14.2131 20.4269 14.2163 20.4279 14.2195 20.4286C14.2405 20.4338 14.2626 20.4308 14.2814 20.4203C14.3002 20.4097 14.3143 20.3923 14.3207 20.3717C14.3271 20.3511 14.3255 20.3289 14.316 20.3095C14.3066 20.2901 14.2901 20.275 14.2699 20.2674Z" fill="#292A2E"/>
<path d="M9.7449 17.5885C9.61528 17.4681 9.48878 17.3438 9.36823 17.2192C9.3605 17.2112 9.35128 17.2048 9.34108 17.2004C9.33089 17.1959 9.31992 17.1936 9.3088 17.1934C9.29768 17.1932 9.28664 17.1952 9.27629 17.1992C9.26595 17.2033 9.25651 17.2094 9.24851 17.2171C9.24051 17.2248 9.23411 17.2341 9.22968 17.2443C9.22524 17.2545 9.22286 17.2654 9.22267 17.2765C9.22247 17.2877 9.22447 17.2987 9.22855 17.3091C9.23262 17.3194 9.23869 17.3288 9.24642 17.3368C9.36879 17.4636 9.49778 17.5901 9.62965 17.7126C9.63779 17.7201 9.64735 17.726 9.65777 17.7299C9.66819 17.7338 9.67927 17.7356 9.69038 17.7351C9.7015 17.7347 9.71242 17.7321 9.72253 17.7275C9.73263 17.7229 9.74173 17.7163 9.7493 17.7082C9.75687 17.7 9.76276 17.6905 9.76663 17.68C9.7705 17.6696 9.77229 17.6585 9.77188 17.6474C9.77147 17.6363 9.76888 17.6254 9.76425 17.6153C9.75962 17.6052 9.75304 17.5961 9.7449 17.5885Z" fill="#292A2E"/>
<path d="M9.74053 7.20312C9.86672 7.08368 9.99889 6.96493 10.1333 6.85025C10.1417 6.84303 10.1487 6.83421 10.1537 6.82431C10.1588 6.8144 10.1618 6.8036 10.1627 6.79251C10.1636 6.78143 10.1623 6.77028 10.1588 6.7597C10.1554 6.74913 10.1499 6.73933 10.1427 6.73087C10.1355 6.72242 10.1267 6.71546 10.1168 6.71041C10.1068 6.70536 10.096 6.70231 10.085 6.70143C10.0739 6.70056 10.0627 6.70188 10.0521 6.70531C10.0416 6.70874 10.0318 6.71422 10.0233 6.72144C9.88677 6.838 9.75247 6.95881 9.6241 7.08018C9.61603 7.08783 9.60954 7.09699 9.60501 7.10714C9.60048 7.11729 9.59799 7.12824 9.59769 7.13935C9.59739 7.15047 9.59928 7.16153 9.60325 7.17191C9.60722 7.1823 9.6132 7.1918 9.62085 7.19987C9.6285 7.20794 9.63766 7.21443 9.64781 7.21896C9.65796 7.22349 9.66891 7.22598 9.68002 7.22628C9.69113 7.22658 9.7022 7.22469 9.71258 7.22072C9.72296 7.21674 9.73246 7.21076 9.74053 7.20312Z" fill="#292A2E"/>
<path d="M7.48377 10.5231C7.48577 10.5238 7.48777 10.5243 7.49002 10.5248C7.51075 10.53 7.53266 10.5271 7.55136 10.5168C7.57007 10.5065 7.58417 10.4895 7.59084 10.4692C7.645 10.3049 7.70684 10.1392 7.77474 9.97669C7.7834 9.95598 7.78349 9.93267 7.77497 9.9119C7.76645 9.89113 7.75003 9.8746 7.72933 9.86593C7.70862 9.85727 7.68531 9.85719 7.66454 9.8657C7.64377 9.87422 7.62724 9.89064 7.61857 9.91135C7.54899 10.0779 7.48558 10.2478 7.43005 10.4162C7.42302 10.4375 7.42472 10.4607 7.4348 10.4808C7.44487 10.5008 7.46248 10.516 7.48377 10.5231Z" fill="#292A2E"/>
<path d="M7.30552 11.7485C7.3247 11.5764 7.35169 11.402 7.38573 11.23C7.38789 11.2191 7.38788 11.2079 7.38571 11.197C7.38353 11.1861 7.37923 11.1757 7.37304 11.1665C7.36686 11.1572 7.35892 11.1493 7.34967 11.1431C7.34042 11.137 7.33005 11.1327 7.31914 11.1305C7.30824 11.1284 7.29701 11.1284 7.28611 11.1305C7.2752 11.1327 7.26484 11.137 7.2556 11.1432C7.24636 11.1494 7.23842 11.1573 7.23225 11.1666C7.22608 11.1758 7.22179 11.1862 7.21963 11.1971C7.18465 11.3739 7.15717 11.5532 7.13724 11.7299C7.13497 11.7502 7.14015 11.7707 7.15182 11.7875C7.16349 11.8044 7.18085 11.8164 7.20071 11.8214C7.20442 11.8223 7.2082 11.823 7.21201 11.8234C7.22307 11.8246 7.23427 11.8237 7.24496 11.8206C7.25565 11.8175 7.26563 11.8123 7.27432 11.8054C7.283 11.7984 7.29023 11.7898 7.29559 11.78C7.30094 11.7703 7.30432 11.7596 7.30552 11.7485Z" fill="#292A2E"/>
<path d="M8.36171 8.69716C8.34286 8.68499 8.31996 8.68078 8.29802 8.68546C8.27607 8.69015 8.25688 8.70334 8.24465 8.72215C8.14652 8.87375 8.05332 9.02892 7.96761 9.18352C7.95675 9.20317 7.95413 9.22633 7.96032 9.24792C7.96652 9.2695 7.98102 9.28775 8.00066 9.29865C8.00715 9.30219 8.01405 9.30492 8.02121 9.30677C8.03931 9.31126 8.05838 9.30967 8.07548 9.30222C8.09257 9.29478 8.10674 9.28191 8.11578 9.2656C8.19955 9.11437 8.29069 8.96252 8.3867 8.81416C8.39887 8.79532 8.40308 8.77243 8.39839 8.7505C8.39371 8.72856 8.38052 8.70938 8.36171 8.69716Z" fill="#292A2E"/>
<path d="M7.27091 12.5346C7.27006 12.5124 7.26055 12.4915 7.24443 12.4763C7.22832 12.461 7.20687 12.4527 7.1847 12.4531C7.16254 12.4535 7.14141 12.4626 7.12587 12.4784C7.11032 12.4943 7.1016 12.5155 7.10156 12.5377C7.10487 12.7166 7.11618 12.8978 7.13504 13.0762C7.13621 13.0873 7.13955 13.098 7.14486 13.1078C7.15017 13.1175 7.15735 13.1261 7.16599 13.1331C7.17463 13.1401 7.18457 13.1453 7.19523 13.1485C7.20589 13.1516 7.21706 13.1527 7.22812 13.1515C7.23917 13.1503 7.24989 13.147 7.25965 13.1417C7.26942 13.1364 7.27804 13.1292 7.28503 13.1205C7.29202 13.1119 7.29724 13.102 7.30039 13.0913C7.30354 13.0806 7.30456 13.0695 7.30339 13.0584C7.28509 12.8848 7.27409 12.7086 7.27091 12.5346Z" fill="#292A2E"/>
<path d="M8.73131 8.18715C8.7407 8.19469 8.75161 8.20011 8.76329 8.20302C8.77908 8.20696 8.79568 8.20627 8.81109 8.20103C8.8265 8.19579 8.84007 8.18622 8.85018 8.17347C8.95769 8.03811 9.07206 7.90243 9.19025 7.77031C9.20451 7.75347 9.21164 7.73173 9.21012 7.70971C9.20859 7.68769 9.19853 7.66713 9.18207 7.65242C9.16562 7.63771 9.14407 7.63 9.12202 7.63094C9.09997 7.63187 9.07915 7.64138 9.064 7.65744C8.94363 7.79205 8.82707 7.93023 8.71757 8.06828C8.71065 8.07698 8.70552 8.08696 8.70247 8.09765C8.69942 8.10834 8.6985 8.11952 8.69978 8.13056C8.70105 8.14161 8.7045 8.15229 8.70991 8.162C8.71532 8.17171 8.72259 8.18025 8.73131 8.18715Z" fill="#292A2E"/>
<path d="M7.8685 15.0705C7.85905 15.0501 7.84189 15.0344 7.82081 15.0266C7.79972 15.0189 7.77643 15.0199 7.75606 15.0293C7.73569 15.0388 7.71991 15.056 7.71219 15.077C7.70447 15.0981 7.70545 15.1214 7.7149 15.1418C7.78948 15.3023 7.87194 15.4635 7.96001 15.6212C7.97126 15.6402 7.98952 15.6541 8.01088 15.6599C8.03224 15.6656 8.055 15.6628 8.07431 15.652C8.09361 15.6412 8.10793 15.6233 8.11419 15.602C8.12045 15.5808 8.11816 15.558 8.10781 15.5384C8.02179 15.3846 7.94159 15.2273 7.8685 15.0705Z" fill="#292A2E"/>
<path d="M11.2117 5.93591C11.1991 5.91727 11.1797 5.90436 11.1577 5.90003C11.1357 5.8957 11.1128 5.90029 11.0942 5.9128C10.9448 6.01274 10.7973 6.11669 10.6555 6.22113C10.6466 6.22773 10.639 6.23602 10.6333 6.24554C10.6275 6.25506 10.6237 6.26561 10.622 6.2766C10.6204 6.2876 10.6209 6.29881 10.6236 6.3096C10.6262 6.32039 10.631 6.33055 10.6376 6.3395C10.6442 6.34845 10.6525 6.35602 10.662 6.36176C10.6715 6.3675 10.6821 6.37132 10.6931 6.37298C10.7041 6.37465 10.7153 6.37413 10.7261 6.37146C10.7369 6.36879 10.747 6.36403 10.756 6.35743C10.8957 6.25449 11.0413 6.15217 11.1885 6.05335C11.2071 6.04085 11.2201 6.02145 11.2244 5.99943C11.2287 5.9774 11.2242 5.95456 11.2117 5.93591Z" fill="#292A2E"/>
<path d="M8.84732 16.6278C8.7365 16.4904 8.62975 16.349 8.53012 16.2075C8.52384 16.1981 8.51574 16.1901 8.5063 16.1839C8.49687 16.1777 8.48629 16.1734 8.47518 16.1713C8.46407 16.1693 8.45266 16.1695 8.44162 16.1719C8.43058 16.1743 8.42014 16.1789 8.4109 16.1854C8.40167 16.1919 8.39383 16.2002 8.38785 16.2098C8.38186 16.2194 8.37786 16.23 8.37607 16.2412C8.37428 16.2524 8.37474 16.2638 8.37742 16.2747C8.38011 16.2857 8.38496 16.296 8.39169 16.3051C8.49339 16.4495 8.60233 16.5938 8.71558 16.7342C8.72242 16.7432 8.73101 16.7508 8.74083 16.7564C8.75064 16.762 8.76149 16.7657 8.77273 16.767C8.78397 16.7684 8.79537 16.7675 8.80626 16.7644C8.81714 16.7613 8.8273 16.756 8.83611 16.7489C8.84493 16.7418 8.85223 16.733 8.85758 16.723C8.86293 16.713 8.86623 16.7021 8.86727 16.6908C8.86832 16.6796 8.86709 16.6682 8.86366 16.6574C8.86024 16.6466 8.85468 16.6366 8.84732 16.628V16.6278Z" fill="#292A2E"/>
<path d="M7.43656 13.8346C7.43136 13.8127 7.41769 13.7939 7.39857 13.7821C7.37944 13.7703 7.35643 13.7666 7.33458 13.7718C7.31274 13.777 7.29386 13.7907 7.28209 13.8098C7.27032 13.829 7.26663 13.852 7.27183 13.8738C7.31312 14.0472 7.36241 14.2217 7.41832 14.3923C7.42531 14.4136 7.44049 14.4313 7.46052 14.4414C7.48055 14.4516 7.5038 14.4534 7.52513 14.4464C7.54647 14.4394 7.56416 14.4242 7.5743 14.4042C7.58445 14.3841 7.58622 14.3609 7.57923 14.3396C7.52476 14.1735 7.47679 14.0034 7.43656 13.8346Z" fill="#292A2E"/>
<path d="M12.3547 5.25965C12.3441 5.23985 12.3261 5.22505 12.3046 5.21851C12.2832 5.21198 12.26 5.21424 12.2401 5.2248C12.0822 5.30907 11.9248 5.39695 11.7724 5.48597C11.7628 5.49158 11.7544 5.49903 11.7477 5.50788C11.741 5.51674 11.7361 5.52683 11.7332 5.53759C11.7304 5.54834 11.7297 5.55955 11.7313 5.57056C11.7328 5.58157 11.7364 5.59218 11.742 5.60178C11.7477 5.61138 11.7551 5.61978 11.764 5.6265C11.7728 5.63322 11.7829 5.63813 11.7937 5.64095C11.8044 5.64376 11.8156 5.64444 11.8266 5.64293C11.8376 5.64142 11.8483 5.63775 11.8579 5.63214C12.0083 5.54425 12.1639 5.45723 12.3201 5.37422C12.3399 5.3636 12.3546 5.34557 12.3611 5.32409C12.3676 5.30262 12.3653 5.27944 12.3547 5.25965Z" fill="#292A2E"/>
<path d="M13.2124 4.7522C13.1298 4.78893 13.048 4.82612 12.967 4.86377C12.9569 4.86845 12.9478 4.87507 12.9403 4.88325C12.9328 4.89143 12.927 4.90102 12.9231 4.91146C12.9193 4.9219 12.9176 4.93299 12.918 4.9441C12.9185 4.95521 12.9212 4.96612 12.9258 4.97621C12.9305 4.98629 12.9371 4.99536 12.9453 5.00288C12.9535 5.01041 12.9631 5.01625 12.9735 5.02008C12.984 5.0239 12.9951 5.02563 13.0062 5.02516C13.0173 5.0247 13.0282 5.02205 13.0383 5.01737C13.1186 4.97989 13.1995 4.94308 13.2812 4.90693C13.3009 4.89732 13.3161 4.88042 13.3237 4.85981C13.3312 4.8392 13.3304 4.81647 13.3215 4.79642C13.3126 4.77637 13.2962 4.76055 13.2759 4.75231C13.2556 4.74406 13.2328 4.74402 13.2125 4.7522H13.2124Z" fill="#292A2E"/>
<path d="M50.6368 49.283C50.4703 49.3153 50.3773 49.3299 50.3763 49.3301C50.3653 49.3318 50.3548 49.3356 50.3453 49.3414C50.3358 49.3472 50.3275 49.3548 50.321 49.3638C50.3077 49.3819 50.3022 49.4046 50.3057 49.4268C50.3092 49.4489 50.3213 49.4688 50.3394 49.4821C50.3576 49.4953 50.3802 49.5008 50.4024 49.4973C50.4063 49.4968 50.499 49.4822 50.6691 49.4492C50.6802 49.4472 50.6907 49.443 50.7001 49.4369C50.7095 49.4308 50.7176 49.4229 50.7239 49.4137C50.7302 49.4044 50.7347 49.394 50.7369 49.383C50.7392 49.3721 50.7393 49.3607 50.7371 49.3497C50.735 49.3387 50.7307 49.3283 50.7245 49.3189C50.7183 49.3096 50.7103 49.3016 50.7009 49.2954C50.6916 49.2892 50.6811 49.2849 50.6701 49.2828C50.6591 49.2807 50.6478 49.2807 50.6368 49.283Z" fill="#292A2E"/>
<path d="M63.3332 37.6325C63.3188 37.808 63.3002 37.9848 63.278 38.1582C63.2754 38.1788 63.2804 38.1996 63.2921 38.2167C63.3037 38.2338 63.3213 38.246 63.3414 38.2511C63.3446 38.2519 63.3479 38.2525 63.3512 38.2529C63.3623 38.2543 63.3735 38.2536 63.3842 38.2506C63.3949 38.2477 63.405 38.2427 63.4138 38.2359C63.4226 38.2291 63.43 38.2207 63.4355 38.211C63.441 38.2014 63.4446 38.1907 63.446 38.1797C63.4685 38.0038 63.4873 37.8244 63.5022 37.6464C63.503 37.6246 63.4954 37.6034 63.4809 37.5871C63.4665 37.5708 63.4463 37.5607 63.4245 37.5589C63.4028 37.5571 63.3812 37.5637 63.3643 37.5774C63.3474 37.5912 63.3363 37.6109 63.3336 37.6325H63.3332Z" fill="#292A2E"/>
<path d="M63.3756 36.842C63.3753 36.8611 63.3814 36.8798 63.393 36.895C63.4046 36.9103 63.4211 36.9211 63.4397 36.9257C63.4458 36.9273 63.4521 36.9281 63.4584 36.9282C63.4695 36.9285 63.4806 36.9265 63.4909 36.9224C63.5013 36.9184 63.5107 36.9123 63.5188 36.9046C63.5268 36.8969 63.5332 36.8877 63.5376 36.8775C63.5421 36.8673 63.5445 36.8563 63.5447 36.8452C63.5481 36.6694 63.548 36.4892 63.5443 36.3095C63.5438 36.2871 63.5345 36.2657 63.5183 36.2502C63.5021 36.2346 63.4804 36.2261 63.4579 36.2266C63.4355 36.227 63.4141 36.2364 63.3986 36.2526C63.383 36.2688 63.3746 36.2905 63.375 36.3129C63.3791 36.4903 63.3791 36.6682 63.3756 36.842Z" fill="#292A2E"/>
<path d="M63.2396 34.2739C63.2532 34.2773 63.2675 34.2773 63.281 34.2738C63.2946 34.2703 63.3071 34.2636 63.3175 34.2541C63.3278 34.2446 63.3356 34.2327 63.3402 34.2194C63.3447 34.2061 63.3459 34.192 63.3437 34.1781C63.3153 34.0035 63.2836 33.8263 63.2495 33.6514C63.245 33.6296 63.2321 33.6105 63.2135 33.5982C63.195 33.5858 63.1724 33.5813 63.1505 33.5855C63.1287 33.5898 63.1094 33.6025 63.0968 33.6208C63.0842 33.6392 63.0794 33.6618 63.0834 33.6837C63.1171 33.8569 63.1483 34.0325 63.1765 34.2054C63.1792 34.2217 63.1866 34.2369 63.1978 34.2491C63.209 34.2613 63.2235 34.2699 63.2396 34.2739Z" fill="#292A2E"/>
<path d="M60.1418 44.6387C60.134 44.6308 60.1247 44.6244 60.1145 44.6201C60.1043 44.6157 60.0933 44.6134 60.0822 44.6133C60.071 44.6132 60.06 44.6153 60.0497 44.6194C60.0394 44.6236 60.03 44.6298 60.0221 44.6376C59.8971 44.7604 59.7673 44.8826 59.6372 45.0007C59.6205 45.0157 59.6106 45.0368 59.6095 45.0592C59.6084 45.0817 59.6162 45.1036 59.6313 45.1203C59.6464 45.1369 59.6675 45.1468 59.6899 45.1479C59.7123 45.149 59.7343 45.1412 59.7509 45.1261C59.8827 45.0066 60.0139 44.8829 60.1406 44.7584C60.1486 44.7506 60.1549 44.7414 60.1593 44.7311C60.1636 44.7209 60.1659 44.7099 60.166 44.6988C60.1661 44.6877 60.164 44.6767 60.1599 44.6664C60.1557 44.6561 60.1496 44.6467 60.1418 44.6387Z" fill="#292A2E"/>
<path d="M57.9649 46.3014C57.8196 46.3989 57.67 46.496 57.5202 46.5898C57.5012 46.6017 57.4877 46.6207 57.4826 46.6426C57.4776 46.6645 57.4815 46.6875 57.4934 46.7066C57.5053 46.7256 57.5243 46.7392 57.5462 46.7442C57.5681 46.7492 57.5911 46.7454 57.6102 46.7334C57.7614 46.6387 57.9125 46.5406 58.0593 46.442C58.0686 46.4358 58.0765 46.4279 58.0826 46.4186C58.0888 46.4094 58.0931 46.399 58.0952 46.3881C58.0973 46.3772 58.0973 46.3659 58.0951 46.3551C58.0929 46.3442 58.0886 46.3338 58.0824 46.3246C58.0762 46.3153 58.0683 46.3074 58.059 46.3013C58.0497 46.2951 58.0394 46.2908 58.0285 46.2887C58.0176 46.2866 58.0063 46.2866 57.9954 46.2888C57.9845 46.291 57.9742 46.2953 57.9649 46.3015V46.3014Z" fill="#292A2E"/>
<path d="M62.914 32.9073C62.9164 32.9184 62.9209 32.9288 62.9274 32.9381C62.9338 32.9473 62.9421 32.9552 62.9516 32.9613C62.9612 32.9673 62.9719 32.9713 62.983 32.9732C62.9941 32.975 63.0055 32.9746 63.0165 32.972C63.0275 32.9694 63.0379 32.9646 63.047 32.9579C63.0561 32.9512 63.0637 32.9428 63.0695 32.9331C63.0753 32.9234 63.0791 32.9126 63.0807 32.9014C63.0823 32.8903 63.0816 32.8789 63.0787 32.868C63.0377 32.6965 62.9935 32.5222 62.9476 32.3495C62.9417 32.3279 62.9275 32.3095 62.9081 32.2984C62.8887 32.2872 62.8656 32.2842 62.844 32.29C62.8224 32.2958 62.804 32.3099 62.7927 32.3292C62.7815 32.3486 62.7783 32.3716 62.784 32.3932C62.8295 32.5642 62.8733 32.7372 62.914 32.9073Z" fill="#292A2E"/>
<path d="M61.8464 29.9144C61.8401 29.9052 61.8322 29.8973 61.8229 29.8911C61.8137 29.8849 61.8033 29.8807 61.7924 29.8785C61.7815 29.8764 61.7702 29.8764 61.7593 29.8786C61.7484 29.8808 61.7381 29.8851 61.7289 29.8913C61.7196 29.8975 61.7117 29.9055 61.7056 29.9148C61.6994 29.924 61.6951 29.9344 61.693 29.9453C61.6909 29.9562 61.6909 29.9675 61.6931 29.9784C61.6953 29.9893 61.6996 29.9996 61.7058 30.0088C61.8043 30.1556 61.8983 30.3056 61.9852 30.4547C61.9907 30.4645 61.9981 30.4732 62.0069 30.4801C62.0158 30.4871 62.0259 30.4922 62.0368 30.4952C62.0476 30.4982 62.059 30.499 62.0702 30.4976C62.0813 30.4961 62.0921 30.4924 62.1018 30.4868C62.1116 30.4811 62.1201 30.4735 62.1269 30.4645C62.1336 30.4555 62.1385 30.4453 62.1413 30.4343C62.1441 30.4234 62.1446 30.412 62.1429 30.4009C62.1412 30.3898 62.1373 30.3791 62.1314 30.3695C62.0428 30.2172 61.9469 30.0642 61.8464 29.9144Z" fill="#292A2E"/>
<path d="M59.1512 45.5294C59.1371 45.5119 59.1166 45.5009 59.0943 45.4985C59.072 45.4962 59.0496 45.5028 59.0322 45.5169C58.8966 45.6263 58.756 45.7355 58.6141 45.8417C58.5968 45.8554 58.5856 45.8753 58.5827 45.8972C58.5799 45.9191 58.5857 45.9412 58.5989 45.9589C58.6122 45.9765 58.6318 45.9883 58.6536 45.9918C58.6754 45.9952 58.6976 45.99 58.7156 45.9772C58.8593 45.8698 59.0014 45.7592 59.1385 45.6485C59.1472 45.6415 59.1544 45.6329 59.1597 45.6231C59.165 45.6133 59.1684 45.6026 59.1696 45.5916C59.1707 45.5805 59.1697 45.5693 59.1666 45.5586C59.1634 45.548 59.1582 45.538 59.1512 45.5294Z" fill="#292A2E"/>
<path d="M62.5016 31.0829C62.4923 31.0624 62.4753 31.0465 62.4543 31.0386C62.4332 31.0307 62.41 31.0315 62.3895 31.0408C62.3691 31.05 62.3531 31.0671 62.3453 31.0881C62.3374 31.1091 62.3381 31.1324 62.3474 31.1528C62.4199 31.3125 62.4874 31.4762 62.5481 31.6393C62.5563 31.6597 62.5722 31.6762 62.5924 31.6851C62.6126 31.694 62.6355 31.6947 62.6562 31.687C62.6768 31.6793 62.6937 31.6639 62.7032 31.6439C62.7126 31.624 62.7139 31.6011 62.7068 31.5802C62.6448 31.4134 62.5757 31.2461 62.5016 31.0829Z" fill="#292A2E"/>
<path d="M62.923 40.1625C62.9125 40.159 62.9013 40.1576 62.8902 40.1584C62.8792 40.1593 62.8683 40.1623 62.8584 40.1673C62.8485 40.1723 62.8397 40.1792 62.8324 40.1876C62.8251 40.196 62.8196 40.2058 62.8161 40.2164C62.7611 40.3832 62.7014 40.5504 62.6385 40.7132C62.6304 40.7342 62.631 40.7575 62.6401 40.778C62.6492 40.7985 62.666 40.8146 62.687 40.8227C62.6903 40.824 62.6936 40.825 62.697 40.8258C62.717 40.8308 62.7382 40.8284 62.7565 40.8189C62.7748 40.8094 62.789 40.7935 62.7965 40.7742C62.8604 40.6088 62.9211 40.4389 62.9769 40.2693C62.9804 40.2588 62.9818 40.2476 62.981 40.2366C62.9801 40.2255 62.9771 40.2147 62.9721 40.2047C62.9671 40.1948 62.9602 40.186 62.9518 40.1787C62.9434 40.1715 62.9336 40.1659 62.923 40.1625Z" fill="#292A2E"/>
<path d="M63.3195 38.9742C63.3219 38.9633 63.3221 38.952 63.3201 38.941C63.318 38.93 63.3138 38.9195 63.3075 38.9102C63.3013 38.9009 63.2933 38.8929 63.2839 38.8868C63.2745 38.8807 63.264 38.8766 63.253 38.8747C63.231 38.8703 63.2081 38.8748 63.1894 38.8873C63.1708 38.8998 63.1578 38.9192 63.1535 38.9412C63.1191 39.114 63.0803 39.2874 63.038 39.4567C63.0351 39.4676 63.0344 39.4789 63.0359 39.49C63.0374 39.5012 63.0412 39.5119 63.0469 39.5216C63.0526 39.5313 63.0601 39.5397 63.0691 39.5464C63.0781 39.5532 63.0884 39.558 63.0993 39.5607C63.1102 39.5635 63.1215 39.564 63.1326 39.5623C63.1438 39.5606 63.1544 39.5567 63.164 39.5508C63.1736 39.5449 63.1819 39.5372 63.1885 39.5281C63.195 39.519 63.1997 39.5087 63.2023 39.4977C63.2452 39.3258 63.2846 39.1496 63.3195 38.9742Z" fill="#292A2E"/>
<path d="M62.4395 41.4009C62.4295 41.3961 62.4186 41.3933 62.4075 41.3927C62.3964 41.3921 62.3853 41.3937 62.3748 41.3974C62.3643 41.4012 62.3547 41.4069 62.3464 41.4144C62.3382 41.4218 62.3315 41.4309 62.3267 41.4409C62.2518 41.5987 62.1715 41.7571 62.0882 41.9117C62.083 41.9215 62.0797 41.9323 62.0786 41.9433C62.0774 41.9544 62.0785 41.9656 62.0817 41.9762C62.0849 41.9868 62.0902 41.9968 62.0972 42.0054C62.1042 42.014 62.1129 42.0211 62.1227 42.0264C62.1324 42.0317 62.1432 42.035 62.1542 42.0361C62.1653 42.0372 62.1765 42.0362 62.1871 42.033C62.1978 42.0298 62.2077 42.0245 62.2163 42.0175C62.2249 42.0104 62.2321 42.0018 62.2373 41.992C62.3219 41.8349 62.4035 41.674 62.4797 41.5136C62.4893 41.4934 62.4905 41.4701 62.483 41.4489C62.4754 41.4278 62.4598 41.4105 62.4395 41.4009Z" fill="#292A2E"/>
<path d="M63.3993 35.594C63.4123 35.5972 63.4259 35.5973 63.4389 35.5943C63.452 35.5912 63.4641 35.5851 63.4743 35.5765C63.4846 35.5678 63.4926 35.5569 63.4978 35.5445C63.503 35.5322 63.5052 35.5188 63.5042 35.5054C63.4908 35.33 63.4738 35.1507 63.4538 34.9724C63.4509 34.9503 63.4396 34.9303 63.4221 34.9166C63.4047 34.9028 63.3825 34.8965 63.3604 34.899C63.3383 34.9014 63.3181 34.9125 63.3041 34.9297C63.2901 34.9469 63.2834 34.969 63.2855 34.9911C63.3053 35.1675 63.3221 35.3447 63.3355 35.5181C63.3368 35.5359 63.3437 35.5528 63.3551 35.5664C63.3666 35.58 63.382 35.5897 63.3993 35.594Z" fill="#292A2E"/>
<path d="M61.0311 43.6519C61.0225 43.6449 61.0126 43.6396 61.002 43.6364C60.9913 43.6332 60.9802 43.6321 60.9691 43.6332C60.958 43.6343 60.9473 43.6376 60.9375 43.6429C60.9277 43.6481 60.9191 43.6553 60.912 43.6639C60.8014 43.7991 60.6857 43.9342 60.5685 44.0654C60.561 44.0737 60.5553 44.0834 60.5516 44.0938C60.548 44.1043 60.5464 44.1155 60.547 44.1266C60.5476 44.1377 60.5504 44.1485 60.5552 44.1586C60.56 44.1686 60.5668 44.1776 60.5751 44.185C60.5834 44.1924 60.593 44.1981 60.6035 44.2018C60.614 44.2055 60.6251 44.207 60.6362 44.2064C60.6473 44.2058 60.6582 44.203 60.6682 44.1982C60.6782 44.1934 60.6872 44.1866 60.6946 44.1783C60.8137 44.0452 60.931 43.9083 61.0433 43.7711C61.0503 43.7625 61.0555 43.7525 61.0587 43.7419C61.0619 43.7312 61.063 43.7201 61.0619 43.709C61.0608 43.6979 61.0575 43.6872 61.0522 43.6774C61.0469 43.6676 61.0398 43.659 61.0311 43.6519Z" fill="#292A2E"/>
<path d="M61.8029 42.568C61.7936 42.562 61.7831 42.5579 61.7721 42.556C61.7612 42.554 61.7499 42.5543 61.7391 42.5567C61.7282 42.5591 61.7179 42.5636 61.7088 42.57C61.6997 42.5764 61.692 42.5845 61.686 42.5939C61.5923 42.7407 61.4933 42.8882 61.3914 43.0321C61.3848 43.0412 61.38 43.0515 61.3773 43.0624C61.3747 43.0733 61.3743 43.0847 61.3761 43.0958C61.3779 43.1069 61.3819 43.1175 61.3878 43.1271C61.3938 43.1366 61.4016 43.1449 61.4108 43.1514C61.4199 43.1579 61.4303 43.1625 61.4413 43.1649C61.4523 43.1673 61.4636 43.1676 61.4747 43.1656C61.4857 43.1636 61.4963 43.1594 61.5057 43.1533C61.5152 43.1472 61.5233 43.1393 61.5296 43.13C61.6331 42.9838 61.7337 42.834 61.8288 42.6849C61.8409 42.666 61.8449 42.643 61.8401 42.6211C61.8352 42.5992 61.8219 42.5801 61.8029 42.568Z" fill="#292A2E"/>
<path d="M51.9272 48.9795C51.7551 49.0258 51.5819 49.0702 51.4123 49.1114C51.4015 49.114 51.3913 49.1187 51.3824 49.1253C51.3734 49.1318 51.3658 49.1401 51.36 49.1496C51.3542 49.1591 51.3504 49.1696 51.3487 49.1806C51.347 49.1916 51.3474 49.2028 51.3501 49.2136C51.3527 49.2244 51.3574 49.2346 51.364 49.2436C51.3705 49.2525 51.3788 49.2601 51.3883 49.2659C51.3978 49.2717 51.4083 49.2756 51.4193 49.2773C51.4303 49.279 51.4415 49.2785 51.4523 49.2759C51.6232 49.2344 51.7979 49.1897 51.9713 49.143C51.982 49.1401 51.9921 49.1351 52.0009 49.1283C52.0097 49.1215 52.0171 49.1131 52.0226 49.1034C52.0282 49.0938 52.0317 49.0832 52.0332 49.0721C52.0346 49.0611 52.0339 49.0499 52.031 49.0392C52.0281 49.0284 52.0231 49.0184 52.0163 49.0096C52.0095 49.0008 52.0011 48.9934 51.9914 48.9878C51.9818 48.9823 51.9712 48.9787 51.9601 48.9773C51.9491 48.9758 51.9379 48.9766 51.9272 48.9795Z" fill="#292A2E"/>
<path d="M58.2849 26.7936C58.3043 26.7985 58.3249 26.7963 58.3428 26.7874C58.3608 26.7785 58.375 26.7636 58.383 26.7452C58.391 26.7268 58.3922 26.7062 58.3864 26.687C58.3807 26.6678 58.3683 26.6513 58.3515 26.6404C58.2042 26.545 58.0516 26.4494 57.8982 26.3561C57.879 26.3444 57.856 26.3408 57.8341 26.3462C57.8123 26.3515 57.7935 26.3653 57.7818 26.3845C57.7702 26.4037 57.7666 26.4267 57.772 26.4486C57.7773 26.4704 57.7911 26.4892 57.8103 26.5009C57.9624 26.5932 58.1135 26.6883 58.2594 26.7825C58.2672 26.7876 58.2758 26.7913 58.2849 26.7936Z" fill="#292A2E"/>
<path d="M53.1985 48.596C53.0319 48.6516 52.8617 48.7061 52.6925 48.7584C52.6819 48.7617 52.672 48.767 52.6634 48.7741C52.6549 48.7812 52.6478 48.7899 52.6426 48.7997C52.6374 48.8096 52.6342 48.8203 52.6332 48.8314C52.6321 48.8425 52.6333 48.8536 52.6366 48.8643C52.6399 48.8749 52.6452 48.8848 52.6523 48.8933C52.6594 48.9019 52.6681 48.9089 52.6779 48.9141C52.6878 48.9193 52.6985 48.9225 52.7096 48.9236C52.7207 48.9246 52.7318 48.9234 52.7425 48.9202C52.9129 48.8678 53.0843 48.8128 53.2521 48.7568C53.2734 48.7496 53.291 48.7344 53.3011 48.7143C53.3111 48.6942 53.3127 48.6709 53.3056 48.6497C53.2985 48.6284 53.2832 48.6108 53.2632 48.6007C53.2431 48.5907 53.2198 48.589 53.1985 48.5962L53.1985 48.596Z" fill="#292A2E"/>
<path d="M55.6625 47.6078C55.5039 47.6834 55.3417 47.7581 55.1804 47.8298C55.1607 47.8395 55.1455 47.8563 55.1379 47.877C55.1304 47.8976 55.1312 47.9203 55.1401 47.9403C55.149 47.9604 55.1653 47.9762 55.1857 47.9845C55.206 47.9927 55.2287 47.9927 55.2491 47.9846C55.4115 47.9122 55.5752 47.8369 55.7351 47.7607C55.7554 47.751 55.771 47.7337 55.7785 47.7126C55.786 47.6914 55.7848 47.6681 55.7752 47.6479C55.7655 47.6276 55.7482 47.612 55.7271 47.6045C55.7059 47.597 55.6826 47.5982 55.6624 47.6078H55.6625Z" fill="#292A2E"/>
<path d="M56.8389 46.9971C56.6868 47.083 56.5301 47.1686 56.3734 47.2512C56.3535 47.2617 56.3386 47.2796 56.3319 47.3011C56.3253 47.3225 56.3274 47.3458 56.3379 47.3657C56.3484 47.3855 56.3663 47.4004 56.3878 47.4071C56.4092 47.4138 56.4324 47.4116 56.4523 47.4011C56.6106 47.3177 56.7687 47.2314 56.9222 47.1446C56.9417 47.1336 56.9561 47.1152 56.9621 47.0936C56.9681 47.072 56.9653 47.0488 56.9542 47.0293C56.9432 47.0098 56.9248 46.9954 56.9032 46.9894C56.8815 46.9834 56.8584 46.9862 56.8389 46.9973V46.9971Z" fill="#292A2E"/>
<path d="M61.2835 29.4033C61.3007 29.4076 61.3189 29.4064 61.3353 29.3998C61.3518 29.3932 61.3658 29.3817 61.3754 29.3667C61.3849 29.3517 61.3896 29.3342 61.3886 29.3164C61.3876 29.2987 61.381 29.2818 61.3699 29.268C61.2595 29.1315 61.1421 28.9943 61.021 28.8602C61.0058 28.8443 60.9849 28.8349 60.9629 28.834C60.9408 28.8332 60.9193 28.841 60.9029 28.8558C60.8866 28.8706 60.8766 28.8912 60.8752 28.9132C60.8738 28.9353 60.881 28.957 60.8953 28.9737C61.0144 29.1056 61.1298 29.2404 61.2383 29.3744C61.2498 29.3887 61.2657 29.3989 61.2835 29.4033Z" fill="#292A2E"/>
<path d="M54.4467 48.1397C54.2849 48.2047 54.1183 48.2692 53.9515 48.3314C53.931 48.3396 53.9146 48.3555 53.9056 48.3758C53.8967 48.396 53.8961 48.4189 53.9038 48.4396C53.9115 48.4603 53.927 48.4771 53.947 48.4866C53.967 48.496 53.9899 48.4972 54.0108 48.49C54.1787 48.4276 54.3466 48.3624 54.5098 48.2969C54.5204 48.2929 54.5301 48.2869 54.5383 48.2792C54.5465 48.2714 54.5531 48.2621 54.5577 48.2518C54.5623 48.2414 54.5647 48.2303 54.5649 48.219C54.5651 48.2077 54.563 48.1964 54.5588 48.186C54.5546 48.1755 54.5483 48.1659 54.5404 48.1579C54.5324 48.1499 54.523 48.1435 54.5125 48.1392C54.5021 48.1349 54.4909 48.1327 54.4796 48.1328C54.4683 48.1329 54.4571 48.1353 54.4467 48.1397Z" fill="#292A2E"/>
<path d="M60.3791 28.4263C60.3973 28.4309 60.4165 28.4294 60.4337 28.4219C60.4509 28.4144 60.4652 28.4015 60.4742 28.385C60.4833 28.3686 60.4866 28.3496 60.4837 28.3311C60.4808 28.3125 60.4718 28.2955 60.4581 28.2826C60.3315 28.1618 60.1983 28.0402 60.0622 27.9213C60.0453 27.9065 60.0232 27.8991 60.0008 27.9006C59.9784 27.9021 59.9575 27.9125 59.9428 27.9294C59.928 27.9463 59.9206 27.9684 59.9221 27.9908C59.9236 28.0132 59.9339 28.0341 59.9509 28.0488C60.0851 28.1661 60.2164 28.2859 60.3412 28.4049C60.3517 28.4152 60.3648 28.4226 60.3791 28.4263Z" fill="#292A2E"/>
<path d="M59.3693 27.5615C59.3882 27.5662 59.4081 27.5642 59.4257 27.556C59.4433 27.5478 59.4575 27.5337 59.466 27.5163C59.4745 27.4988 59.4767 27.4789 59.4723 27.46C59.4679 27.4411 59.4571 27.4243 59.4417 27.4124C59.3034 27.3054 59.1589 27.1977 59.0122 27.0925C59.0032 27.0854 58.9929 27.0802 58.9819 27.0772C58.9708 27.0742 58.9593 27.0735 58.9479 27.075C58.9366 27.0766 58.9257 27.0805 58.9159 27.0864C58.9061 27.0923 58.8976 27.1002 58.8909 27.1095C58.8842 27.1188 58.8795 27.1293 58.877 27.1405C58.8745 27.1517 58.8743 27.1633 58.8764 27.1745C58.8786 27.1858 58.8829 27.1965 58.8893 27.206C58.8957 27.2155 58.9039 27.2236 58.9135 27.2299C59.0585 27.334 59.2014 27.4403 59.3382 27.5461C59.3474 27.5533 59.358 27.5586 59.3693 27.5615Z" fill="#292A2E"/>
<path d="M12.8867 2.56747L12.9278 5.29798L22.976 0.0722656L12.8867 2.56747Z" fill="#0CBC8B"/>
<path opacity="0.2" d="M12.8867 2.56747L12.9278 5.29798L22.976 0.0722656L12.8867 2.56747Z" fill="#0A0A0A"/>
<path d="M13.4065 3.37316L12.9258 5.29718L20.6137 1.14844L13.4065 3.37316Z" fill="#0CBC8B"/>
<path opacity="0.1" d="M13.4065 3.37316L12.9258 5.29718L20.6137 1.14844L13.4065 3.37316Z" fill="#0A0A0A"/>
<path d="M11.9492 1.09127L22.9748 0.0722656L15.2356 6.69254L13.4073 3.37397L22.9748 0.0722656L12.8855 2.56747L11.9492 1.09127Z" fill="#0CBC8B"/>
<path d="M11.293 22.2982L35.4131 37.6452L59.5333 22.2982L35.4048 0L11.293 22.2982Z" fill="#292A2E"/>
<path d="M54.8608 3.25781H15.9688V45.7639H54.8608V3.25781Z" fill="white"/>
<path d="M54.9233 45.8264H15.9062V3.19531H54.9233V45.8264ZM16.0312 45.7015H54.7984V3.32024H16.0312L16.0312 45.7015Z" fill="#292A2E"/>
<path d="M27.6898 7.06836H19.7109V15.0473H27.6898V7.06836Z" fill="white"/>
<path d="M27.7523 15.1098H19.6484V7.00586H27.7523V15.1098ZM19.7735 14.9848H27.6274V7.13079H19.7734L19.7735 14.9848Z" fill="#292A2E"/>
<path d="M51.2666 18.1738H19.7109V18.2988H51.2666V18.1738Z" fill="#292A2E"/>
<path d="M51.2666 21.168H19.7109V21.2929H51.2666V21.168Z" fill="#292A2E"/>
<path d="M51.2666 24.1602H19.7109V24.2851H51.2666V24.1602Z" fill="#292A2E"/>
<path d="M51.2666 27.1543H19.7109V27.2792H51.2666V27.1543Z" fill="#292A2E"/>
<path d="M51.2666 30.1465H19.7109V30.2714H51.2666V30.1465Z" fill="#292A2E"/>
<path d="M51.2666 33.1406H19.7109V33.2656H51.2666V33.1406Z" fill="#292A2E"/>
<path d="M59.5333 52.3569H11.293V22.2988L35.4131 37.0212L59.5333 22.2988V52.3569Z" fill="#367CFF"/>
<path opacity="0.83" d="M59.5333 52.3569H11.293V22.2988L35.4131 37.0212L59.5333 22.2988V52.3569Z" fill="white"/>
</g>
</svg>
