<svg width="49" height="59" viewBox="0 0 49 59" fill="none" xmlns="http://www.w3.org/2000/svg">
<path d="M4.66206 45.1922L4.81895 45.305L5.01094 45.283L8.86987 44.8404L9.48386 47.5L6.85365 47.7509L6.75361 47.7604L6.66502 47.8079L3.25104 49.6367L2.76419 47.8006L2.23646 44.9213L2.98752 43.9881L4.66206 45.1922Z" fill="white" stroke="#CCCCCC"/>
<path d="M31.7808 39.8551L31.8467 39.8563L31.9107 39.8404L36.8381 38.6141L39.0526 49.6661L21.8209 44.6749L21.6835 44.6351L21.5458 44.674L10.3238 47.8453L8.99704 44.9301L21.303 39.6634L31.7808 39.8551Z" fill="white" stroke="#CCCCCC"/>
<path d="M2.5037 44.2232L2.51995 44.691L2.2568 44.3108L1.84721 44.5942L1.50824 44.8288C1.32614 43.8371 1.16506 42.8528 1.05097 42.0151C0.980302 41.4962 0.928319 41.0384 0.900243 40.6722C0.871004 40.2909 0.871613 40.0521 0.887691 39.9461L0.887703 39.946C0.925913 39.6936 1.00751 39.5745 1.06831 39.5152C1.13138 39.4538 1.21434 39.4159 1.32016 39.398C1.41106 39.3827 1.50636 39.3846 1.59087 39.3941L4.00663 44.1146L2.5037 44.2232ZM1.69753 45.2533L3.97766 49.2462C3.84548 49.3126 3.69417 49.3868 3.53653 49.4608C3.29587 49.5739 3.04754 49.6831 2.83323 49.763C2.776 49.7843 2.72302 49.8029 2.67473 49.8185C2.67268 49.8132 2.6706 49.8078 2.6685 49.8023C2.58171 49.5742 2.47772 49.2314 2.36295 48.7969C2.13468 47.9328 1.87748 46.7584 1.64134 45.5355C1.60483 45.3463 1.56885 45.1563 1.53361 44.9662L1.69753 45.2533ZM2.76656 50.02C2.76655 50.02 2.7661 50.0194 2.76525 50.0181C2.76614 50.0193 2.76657 50.02 2.76656 50.02Z" fill="white" stroke="#CCCCCC"/>
<path d="M43.3088 23.4896L44.3074 26.799L39.9227 26.2126L40.7642 23.5648L43.3088 23.4896Z" fill="white" stroke="#CCCCCC"/>
<path opacity="0.1" d="M43.3088 23.4896L44.3074 26.799L39.9227 26.2126L40.7642 23.5648L43.3088 23.4896Z" fill="white" stroke="#CCCCCC"/>
<path d="M44.2768 26.7616L44.4993 26.77C44.5613 26.785 44.6478 26.8131 44.7589 26.8661C45.1169 27.0366 45.727 27.4634 46.5697 28.5185C46.7121 28.6968 46.8716 29.0818 47.0153 29.7079C47.1543 30.3132 47.2645 31.0769 47.3498 31.9496C47.5202 33.6937 47.5867 35.8267 47.5988 37.9034C47.6109 39.9778 47.5687 41.9855 47.5234 43.4754C47.5007 44.2201 47.4774 44.8349 47.4596 45.2633C47.4586 45.2897 47.4575 45.3153 47.4564 45.3403L35.8599 42.7726L38.1766 29.3762L39.5623 26.5836L44.2768 26.7616Z" fill="white" stroke="#CCCCCC"/>
<path d="M28.6003 14.0333C28.8071 14.2391 28.9912 14.55 29.095 14.9307L29.1315 15.0986C29.2067 15.4445 29.1918 15.8021 29.0875 16.1435L29.0514 16.2613L29.0743 16.3824L29.8413 20.4462L28.8724 20.6292L27.9923 16.5435L27.9671 16.4263L27.8914 16.3332C27.6577 16.0459 27.5043 15.7155 27.439 15.3667L27.4391 15.3667L27.4377 15.3597C27.3458 14.9047 27.3946 14.4954 27.5194 14.2061C27.6447 13.9156 27.8204 13.7908 27.9772 13.7635C28.1383 13.7354 28.3618 13.796 28.6003 14.0333Z" fill="white" stroke="#CCCCCC"/>
<path d="M32.5211 25.5775L32.6133 25.8538L32.8991 25.9098L42.5798 27.8096L41.3834 31.2677L30.5275 29.8453L27.4999 17.923L29.7861 17.3835L32.5211 25.5775Z" fill="white" stroke="#CCCCCC"/>
<path d="M22.6746 1.47604C23.9614 0.202408 25.9856 0.176724 27.3009 1.39031V2.32083L27.7682 1.85807L27.773 1.86287L28.1037 1.52596L28.1526 1.47746C29.4939 0.149465 31.635 0.180166 32.9386 1.54848L32.9388 1.54865C34.2442 2.91759 34.2168 5.10785 32.8794 6.44186C32.868 6.45199 32.8512 6.46727 32.8348 6.48402L32.4911 6.83421L32.502 6.84533L27.6369 11.6594L22.6066 6.38152L22.6049 6.37971L22.5718 6.34459C21.2948 4.96679 21.3414 2.79572 22.6746 1.47604ZM22.6746 1.47604L22.3229 1.12067L22.6746 1.47604Z" fill="#EEEEEE" stroke="#CCCCCC"/>
<path d="M39.334 39.6763C42.0577 37.0361 42.1202 32.6979 39.4714 29.9806C36.8198 27.262 32.4565 27.1979 29.7251 29.8387L29.705 29.8582C29.6971 29.8664 29.687 29.8768 29.6765 29.8873L29.325 30.2373L29.319 30.2314L28.8776 30.6582V29.797C26.2061 27.2548 21.9818 27.2618 19.3185 29.8371L39.334 39.6763ZM39.334 39.6763L39.2854 39.7206L38.8982 40.0742L38.9387 40.1146L29.0596 49.671L19.1803 39.5408L19.1142 39.4707L19.1129 39.4694C16.5242 36.7437 16.6162 32.452 19.3183 29.8372L39.334 39.6763Z" fill="#EEEEEE" stroke="#CCCCCC"/>
<path d="M44.6546 41.466L39.0758 38.1253L39.0255 38.1092C38.9572 38.0874 38.8561 38.0556 38.7265 38.0156C38.4672 37.9357 38.0937 37.8231 37.6388 37.6933C36.7282 37.4336 35.4952 37.1061 34.2005 36.8329C32.902 36.559 31.5592 36.3437 30.4238 36.3015C29.856 36.2803 29.356 36.3032 28.9473 36.3771C28.5324 36.4522 28.2549 36.5721 28.0898 36.7108L44.6546 41.466ZM44.6546 41.466C44.6801 41.4882 44.7177 41.5214 44.7653 41.5645C44.8623 41.6523 45.0005 41.7808 45.1625 41.9413C45.4879 42.2638 45.9026 42.7088 46.2716 43.2074C46.6445 43.7112 46.949 44.2407 47.0844 44.7334C47.2169 45.2157 47.1775 45.6143 46.9386 45.9439L46.9384 45.9441C46.2814 46.8516 44.7805 48.1753 43.1631 49.1379C42.3588 49.6166 41.5515 49.9902 40.8311 50.1806C40.099 50.3741 39.5325 50.3589 39.1467 50.1664C38.9408 50.0636 38.6744 49.8621 38.3563 49.5566C38.0431 49.256 37.7015 48.876 37.3437 48.4402C36.6282 47.5688 35.869 46.5 35.1716 45.456C34.4753 44.4136 33.8459 43.4039 33.3903 42.6542C33.1626 42.2795 32.9786 41.9703 32.8516 41.755C32.7882 41.6473 32.739 41.5632 32.7058 41.5061L32.6681 41.4413L32.6587 41.4249L32.6563 41.4209L32.6558 41.42L32.6557 41.4198L32.2223 41.6692L32.6557 41.4198L31.9371 40.1713L31.7276 41.5965L30.6132 49.178L28.3644 48.9764C28.3576 48.9397 28.3504 48.9005 28.3428 48.8589C28.2859 48.5473 28.2067 48.0995 28.1181 47.5565C27.9407 46.4697 27.7261 45.0052 27.576 43.489C27.4255 41.9688 27.3417 40.415 27.42 39.1433C27.4592 38.5068 27.538 37.9594 27.6611 37.5299C27.7872 37.0898 27.9426 36.8347 28.0897 36.7109L44.6546 41.466Z" fill="white" stroke="#CCCCCC"/>
<path d="M28.2112 51.2236L28.2543 51.161L28.2768 51.0883L29.016 48.707L30.1698 48.8278L30.5664 50.3306L30.5899 50.4195L30.6434 50.4942L31.2374 51.3236L31.248 52.4336L27.5229 54.9768L26.6066 53.5548L28.2112 51.2236Z" fill="white" stroke="#CCCCCC"/>
<path d="M26.9509 54.8488L27.2859 55.4039L27.4847 55.1993L27.585 55.2492L27.8999 55.4058L28.1537 55.1625L31.7692 51.6974C31.8317 51.858 31.901 52.0352 31.9725 52.2168C32.15 52.6678 32.3498 53.1684 32.4927 53.5022C32.4917 53.503 32.4907 53.5038 32.4896 53.5046C32.3093 53.6451 32.026 53.8355 31.6578 54.0642C30.9261 54.5188 29.9102 55.0941 28.84 55.6739C26.6829 56.8427 24.3837 57.988 23.7789 58.203C23.5298 58.2915 23.3864 58.2768 23.3116 58.2544C23.2371 58.2322 23.1765 58.1861 23.1221 58.1137C23.0774 58.0544 23.0428 57.9845 23.0171 57.9167L26.2289 53.6523L26.9509 54.8488ZM32.6452 53.3682C32.6453 53.3682 32.6446 53.369 32.6432 53.3706C32.6445 53.369 32.6452 53.3682 32.6452 53.3682Z" fill="white" stroke="#CCCCCC"/>
<path d="M28.6159 41.8719C28.8585 41.6703 29.2175 41.5044 29.6472 41.4363L29.7927 41.419C30.1676 41.3741 30.5486 41.4253 30.9035 41.5687L31.0161 41.6141L31.1369 41.6029L35.5054 41.1976L35.6202 42.2548L31.2366 42.7734L31.1184 42.7874L31.0191 42.8532C30.6939 43.0687 30.3286 43.1981 29.9521 43.2324L29.9521 43.2324L29.9452 43.2331C29.4542 43.2847 29.0206 43.194 28.7192 43.0328C28.4151 42.8701 28.2929 42.6683 28.2767 42.4975C28.2604 42.3251 28.3442 42.0976 28.6159 41.8719Z" fill="white" stroke="#CCCCCC"/>
<path d="M40.4779 38.8207L40.7613 38.7542L40.8434 38.4749L43.6368 28.9664L47.08 30.4691L44.675 41.1801L32.22 43.1741L31.8708 40.8413L40.4779 38.8207Z" fill="white" stroke="#CCCCCC"/>
<path d="M45.3929 19.8853C45.3929 21.7805 43.763 23.3623 41.6948 23.3623C39.6267 23.3623 37.9968 21.7805 37.9968 19.8853C37.9968 17.9901 39.6267 16.4082 41.6948 16.4082C43.763 16.4082 45.3929 17.9901 45.3929 19.8853Z" fill="white" stroke="#CCCCCC"/>
<path d="M41.7864 14.567C41.6689 14.635 41.5113 14.5316 41.4726 14.4017C41.4354 14.2718 41.4786 14.133 41.5232 14.0061C41.596 13.7906 41.6689 13.575 41.7432 13.361C41.8994 12.9033 42.0644 12.4295 42.402 12.0811C42.9105 11.5555 43.7195 11.4212 44.4481 11.5186C45.3834 11.6426 46.3054 12.146 46.7411 12.9772C47.1753 13.8083 46.9909 14.9686 46.2058 15.4867C47.3255 16.7607 47.7151 18.1809 47.6541 19.8697C47.5931 21.5599 45.7373 23.1144 44.5284 24.3043C44.2578 24.1419 44.0124 23.3801 44.1611 23.1026C44.3098 22.8266 44.0972 22.5047 44.2801 22.2508C44.463 21.9969 44.6176 22.4014 44.4318 22.149C44.3143 21.9895 44.7723 21.6205 44.5983 21.526C43.7552 21.0625 43.4741 20.0188 42.9433 19.2186C42.3038 18.2547 41.2094 17.6007 40.0525 17.4929C39.4146 17.4339 38.741 17.5417 38.219 17.9092C37.6956 18.2768 37.3581 18.9337 37.4785 19.5582C37.1648 19.2423 37.0086 18.7773 37.0666 18.3373C37.1261 17.8974 37.3982 17.49 37.7848 17.2656C37.5499 16.495 37.7506 15.6078 38.2964 15.0114C38.8421 14.415 41.0533 14.5169 41.8488 14.6733L41.7879 14.5685L41.7864 14.567Z" fill="#999999"/>
<path d="M42.4449 17.9001C42.4649 18.0154 42.5033 18.1367 42.5599 18.2645C42.6982 18.5771 42.9302 18.8914 43.1923 19.1815C43.2414 19.2358 43.293 19.2921 43.3463 19.3501C43.5777 19.6024 43.8392 19.8874 44.0546 20.1883C44.3255 20.5667 44.5609 21.0176 44.6087 21.5541L44.6088 21.5545C44.6098 21.5655 44.6106 21.5766 44.6115 21.5877C44.7322 21.3208 44.8013 21.1068 44.8044 20.8994L44.8044 20.8993C44.8108 20.4602 44.5266 20.0335 44.1162 19.4987L42.4449 17.9001ZM42.4449 17.9001C42.6525 17.999 42.8537 18.1368 43.0523 18.3072C43.4343 18.6349 43.7778 19.058 44.1161 19.4986L42.4449 17.9001Z" fill="white" stroke="#CCCCCC"/>
</svg>
