<svg width="18" height="18" viewBox="0 0 18 18" fill="none" xmlns="http://www.w3.org/2000/svg">
<path d="M9 0C13.977 0 18 4.0329 18 9C18 13.9689 13.977 18 9 18C4.032 18 0 13.9689 0 9C0 4.0329 4.032 0 9 0ZM9 11.6379C8.568 11.6379 8.217 11.9889 8.217 12.4209C8.217 12.8529 8.568 13.2129 9.009 13.2129C9.441 13.2129 9.792 12.8529 9.792 12.4209C9.792 11.9889 9.441 11.6379 9 11.6379ZM9 4.797C8.568 4.797 8.208 5.1579 8.208 5.589V9.567C8.208 9.9999 8.568 10.35 9 10.35C9.432 10.35 9.783 9.9999 9.783 9.567V5.589C9.783 5.1579 9.432 4.797 9 4.797Z" fill="#B2CBDF"/>
</svg>
