<svg width="51" height="63" viewBox="0 0 51 63" fill="none" xmlns="http://www.w3.org/2000/svg">
<g style="mix-blend-mode:luminosity">
<path d="M47.83 1.06507L1.52344 2.54297L3.39618 61.2211L49.7028 59.7432L47.83 1.06507Z" fill="#292A2E"/>
<path opacity="0.58" d="M47.83 1.06507L1.52344 2.54297L3.39618 61.2211L49.7028 59.7432L47.83 1.06507Z" fill="white"/>
<path d="M46.137 0.0431275L0.0429688 3.8457L4.86321 62.2756L50.9572 58.473L46.137 0.0431275Z" fill="white"/>
<path d="M46.1005 0.0858554L50.9145 58.4365L4.89949 62.2324L0.0858554 3.88179L46.1008 0.0858554M46.1733 0L0 3.80907L4.82668 62.3183L51 58.5092L46.1733 0Z" fill="black"/>
<path d="M43.0035 4.15502L21.9648 5.89062L22.0903 7.41192L43.129 5.67631L43.0035 4.15502Z" fill="#292A2E"/>
<path d="M43.3632 8.29632L22.3164 10.0273L22.3229 10.1067L43.3697 8.37565L43.3632 8.29632Z" fill="black"/>
<path d="M43.5897 11.0912L22.543 12.8223L22.5495 12.9016L43.5962 11.1706L43.5897 11.0912Z" fill="black"/>
<path d="M43.8163 13.8842L22.7695 15.6152L22.7761 15.6946L43.8228 13.9635L43.8163 13.8842Z" fill="black"/>
<path d="M44.0467 16.6772L23 18.4082L23.0065 18.4875L44.0533 16.7565L44.0467 16.6772Z" fill="black"/>
<path d="M32.6868 20.4257L23.2344 21.2031L23.2409 21.2825L32.6933 20.505L32.6868 20.4257Z" fill="black"/>
<path d="M44.6367 23.9094L5.44531 27.1426L5.57081 28.6639L44.7622 25.4307L44.6367 23.9094Z" fill="#292A2E"/>
<path d="M25.63 46.1726L9.63281 47.4883L9.63934 47.5676L25.6365 46.2519L25.63 46.1726Z" fill="black"/>
<path d="M25.8995 49.4616L9.90234 50.7773L9.90887 50.8567L25.9061 49.541L25.8995 49.4616Z" fill="black"/>
<path d="M26.1691 52.7487L10.1719 54.0645L10.1784 54.1438L26.1756 52.8281L26.1691 52.7487Z" fill="black"/>
<path d="M26.4425 56.0358L10.4453 57.3516L10.4518 57.4309L26.449 56.1152L26.4425 56.0358Z" fill="black"/>
<path d="M7.95863 48.2708C8.42335 48.2708 8.80008 47.8941 8.80008 47.4293C8.80008 46.9646 8.42335 46.5879 7.95863 46.5879C7.49392 46.5879 7.11719 46.9646 7.11719 47.4293C7.11719 47.8941 7.49392 48.2708 7.95863 48.2708Z" fill="#292A2E"/>
<path d="M8.79066 58.3509C9.25538 58.3509 9.63211 57.9741 9.63211 57.5094C9.63211 57.0447 9.25538 56.668 8.79066 56.668C8.32595 56.668 7.94922 57.0447 7.94922 57.5094C7.94922 57.9741 8.32595 58.3509 8.79066 58.3509Z" fill="#292A2E"/>
<path d="M8.52113 55.0637C8.98585 55.0637 9.36258 54.687 9.36258 54.2223C9.36258 53.7576 8.98585 53.3809 8.52113 53.3809C8.05642 53.3809 7.67969 53.7576 7.67969 54.2223C7.67969 54.687 8.05642 55.0637 8.52113 55.0637Z" fill="#292A2E"/>
<path d="M8.23598 51.6673C8.7007 51.6673 9.07742 51.2905 9.07742 50.8258C9.07742 50.3611 8.7007 49.9844 8.23598 49.9844C7.77126 49.9844 7.39453 50.3611 7.39453 50.8258C7.39453 51.2905 7.77126 51.6673 8.23598 51.6673Z" fill="#292A2E"/>
<path d="M46.337 44.4675L30.3398 45.7832L30.3464 45.8625L46.3436 44.5468L46.337 44.4675Z" fill="black"/>
<path d="M46.6144 47.7565L30.6172 49.0723L30.6237 49.1516L46.6209 47.8359L46.6144 47.7565Z" fill="black"/>
<path d="M46.88 51.0437L30.8828 52.3594L30.8893 52.4387L46.8865 51.123L46.88 51.0437Z" fill="black"/>
<path d="M47.1495 54.3308L31.1523 55.6465L31.1589 55.7258L47.1561 54.4101L47.1495 54.3308Z" fill="black"/>
<path d="M28.6696 46.5657C29.1343 46.5657 29.511 46.189 29.511 45.7243C29.511 45.2595 29.1343 44.8828 28.6696 44.8828C28.2049 44.8828 27.8281 45.2595 27.8281 45.7243C27.8281 46.189 28.2049 46.5657 28.6696 46.5657Z" fill="#292A2E"/>
<path d="M29.5016 56.6438C29.9663 56.6438 30.343 56.2671 30.343 55.8024C30.343 55.3377 29.9663 54.9609 29.5016 54.9609C29.0369 54.9609 28.6602 55.3377 28.6602 55.8024C28.6602 56.2671 29.0369 56.6438 29.5016 56.6438Z" fill="#292A2E"/>
<path d="M29.2321 53.3587C29.6968 53.3587 30.0735 52.9819 30.0735 52.5172C30.0735 52.0525 29.6968 51.6758 29.2321 51.6758C28.7674 51.6758 28.3906 52.0525 28.3906 52.5172C28.3906 52.9819 28.7674 53.3587 29.2321 53.3587Z" fill="#292A2E"/>
<path d="M28.9469 49.9602C29.4116 49.9602 29.7884 49.5835 29.7884 49.1188C29.7884 48.6541 29.4116 48.2773 28.9469 48.2773C28.4822 48.2773 28.1055 48.6541 28.1055 49.1188C28.1055 49.5835 28.4822 49.9602 28.9469 49.9602Z" fill="#292A2E"/>
<path d="M12.3674 15.0473C13.8971 15.0473 15.1371 13.8072 15.1371 12.2775C15.1371 10.7479 13.8971 9.50781 12.3674 9.50781C10.8377 9.50781 9.59766 10.7479 9.59766 12.2775C9.59766 13.8072 10.8377 15.0473 12.3674 15.0473Z" fill="#367CFF"/>
<path d="M19.305 19.1092C18.6249 20.1226 17.7252 20.9697 16.6729 21.5877C15.6205 22.2057 14.4425 22.5788 13.2262 22.6791C12.0099 22.7794 10.7866 22.6045 9.64721 22.1673C8.5078 21.7301 7.48151 21.0419 6.64453 20.1537C7.30333 19.1136 8.19439 18.2406 9.24766 17.6032C10.3009 16.9657 11.4877 16.5813 12.7147 16.4801C13.9416 16.3789 15.1753 16.5636 16.3188 17.0198C17.4623 17.476 18.4844 18.1912 19.3047 19.1092H19.305Z" fill="#367CFF"/>
<path d="M12.5695 6.53269C14.6457 6.53494 16.6407 7.33955 18.1375 8.77835C19.6343 10.2172 20.5171 12.1788 20.6013 14.2533C20.6855 16.3277 19.9647 18.3545 18.5895 19.9099C17.2143 21.4654 15.2912 22.4291 13.222 22.5997C12.9992 22.618 12.7736 22.6274 12.5513 22.6274C10.4751 22.6251 8.48016 21.8205 6.98337 20.3817C5.48658 18.9429 4.6038 16.9813 4.51956 14.9068C4.43532 12.8323 5.15612 10.8056 6.53132 9.25012C7.90652 7.69469 9.82969 6.73097 11.8989 6.56038C12.1216 6.542 12.347 6.53269 12.5695 6.53269ZM12.5696 6.45312C12.3457 6.45312 12.1196 6.46235 11.8925 6.48105C10.8289 6.56872 9.79294 6.86503 8.84384 7.35307C7.89474 7.8411 7.05107 8.51131 6.36099 9.32541C5.67092 10.1395 5.14796 11.0816 4.82198 12.0978C4.49599 13.114 4.37337 14.1845 4.4611 15.2481C4.62864 17.2793 5.55323 19.1733 7.05159 20.5548C8.54995 21.9364 10.5127 22.7045 12.5508 22.7069C12.7747 22.7069 13.0005 22.6976 13.228 22.6789C14.2916 22.5912 15.3274 22.2948 16.2765 21.8068C17.2255 21.3187 18.0691 20.6485 18.7592 19.8344C19.4492 19.0203 19.9721 18.0783 20.2981 17.0621C20.624 16.0459 20.7466 14.9755 20.6589 13.9119C20.4913 11.8807 19.5667 9.98663 18.0684 8.60512C16.57 7.22361 14.6072 6.45553 12.5691 6.45312H12.5696Z" fill="black"/>
<path d="M45.0192 28.4551L5.8125 31.6797L5.81902 31.759L45.0257 28.5344L45.0192 28.4551Z" fill="black"/>
<path d="M45.2387 31.2352L6.04688 34.4629L6.0534 34.5421L45.2453 31.3144L45.2387 31.2352Z" fill="black"/>
<path d="M45.4653 34.0262L6.27344 37.2539L6.27996 37.3331L45.4718 34.1055L45.4653 34.0262Z" fill="black"/>
<path d="M45.6998 36.8212L6.50781 40.0488L6.51434 40.128L45.7063 36.9004L45.6998 36.8212Z" fill="black"/>
<path d="M16.1868 42.08L6.73438 42.8574L6.7409 42.9368L16.1933 42.1593L16.1868 42.08Z" fill="black"/>
<path d="M5.27556 0.814444C5.57574 0.858614 5.84732 1.01687 6.03375 1.25625C6.22018 1.49564 6.30708 1.79771 6.27638 2.09957L5.86023 6.59524C5.83931 6.83104 5.72563 7.04889 5.54418 7.20093C5.36272 7.35296 5.12833 7.42674 4.89251 7.40605C4.66481 7.38071 4.45613 7.26711 4.31126 7.08963C4.16639 6.91215 4.09689 6.68494 4.11766 6.45679L4.54566 1.83444C4.55739 1.6896 4.62242 1.55425 4.72817 1.45459C4.83392 1.35492 4.97288 1.29801 5.11817 1.29488C5.1984 1.29466 5.2778 1.31118 5.35129 1.3434C5.42477 1.37561 5.49072 1.42282 5.54492 1.48199C5.59911 1.54115 5.64036 1.61098 5.66602 1.68701C5.69168 1.76303 5.70118 1.84357 5.69393 1.92348L5.39356 5.16816C5.38993 5.20723 5.37093 5.24326 5.34074 5.26832C5.31056 5.29339 5.27166 5.30545 5.23259 5.30184C5.21322 5.30004 5.1944 5.29445 5.17721 5.28537C5.16001 5.27629 5.14477 5.26391 5.13236 5.24894C5.11995 5.23397 5.11062 5.21669 5.10489 5.19811C5.09917 5.17952 5.09716 5.15999 5.09899 5.14063L5.39817 1.90876C5.40594 1.83814 5.38737 1.76713 5.34603 1.70935C5.30468 1.65157 5.24346 1.61109 5.1741 1.59566C5.1357 1.58824 5.09618 1.58893 5.05806 1.5977C5.01995 1.60647 4.98409 1.62312 4.95279 1.64658C4.9215 1.67003 4.89546 1.69978 4.87635 1.7339C4.85723 1.76803 4.84547 1.80577 4.84182 1.84471L4.41382 6.46721C4.39868 6.61232 4.4379 6.75789 4.5239 6.87574C4.60991 6.99359 4.73657 7.07536 4.87938 7.1052C4.95856 7.12026 5.04001 7.11861 5.11851 7.10036C5.19702 7.08211 5.27085 7.04767 5.33527 6.99923C5.39969 6.9508 5.45328 6.88944 5.49262 6.81909C5.53195 6.74874 5.55615 6.67095 5.56368 6.5907L5.98253 2.06671C6.00502 1.83371 5.9341 1.60132 5.78535 1.42058C5.6366 1.23985 5.42219 1.12555 5.18922 1.1028C4.96334 1.08602 4.73989 1.15852 4.56688 1.30471C4.39387 1.45091 4.28512 1.65914 4.26399 1.88465L3.90457 5.76581C3.90279 5.78515 3.89721 5.80394 3.88815 5.82112C3.8791 5.8383 3.86675 5.85353 3.85181 5.86594C3.83687 5.87835 3.81963 5.88769 3.80108 5.89343C3.78252 5.89917 3.76302 5.9012 3.74368 5.89941C3.72434 5.89763 3.70554 5.89206 3.68835 5.88301C3.67116 5.87396 3.65592 5.86161 3.6435 5.84666C3.63109 5.83172 3.62174 5.81448 3.61599 5.79592C3.61025 5.77737 3.60821 5.75786 3.61001 5.73852L3.96934 1.85736C3.98391 1.70203 4.02963 1.55122 4.10378 1.41395C4.17793 1.27668 4.27898 1.15577 4.4009 1.05842C4.52282 0.961075 4.66311 0.8893 4.81339 0.847382C4.96367 0.805463 5.12085 0.794261 5.27556 0.814444Z" fill="#367CFF"/>
</g>
</svg>
