<svg width="36" height="47" viewBox="0 0 36 47" fill="none" xmlns="http://www.w3.org/2000/svg">
<path d="M12.5306 1.47604C13.8174 0.202408 15.8416 0.176724 17.1568 1.39031V2.32083L17.6242 1.85807L17.6289 1.86287L17.9596 1.52596L18.0086 1.47746C19.3499 0.149465 21.491 0.180166 22.7946 1.54848L22.7947 1.54865C24.1002 2.91759 24.0728 5.10785 22.7354 6.44186C22.724 6.45199 22.7072 6.46727 22.6908 6.48402L22.3471 6.83421L22.358 6.84533L17.4929 11.6594L12.4626 6.38152L12.4608 6.37971L12.4277 6.34459C11.1507 4.96679 11.1973 2.79572 12.5306 1.47604ZM12.5306 1.47604L12.1788 1.12067L12.5306 1.47604Z" fill="white" stroke="#CCCCCC"/>
<path d="M32.6555 17.556C36.5261 21.5458 36.4339 27.9174 32.4523 31.7929L32.3806 31.8587L31.996 32.2114L32.0494 32.2649L17.6172 46.2927L3.3475 31.5903L3.25184 31.4884L3.25056 31.487C-0.531774 27.4855 -0.397166 21.1837 3.5507 17.3454C7.46238 13.5448 13.6788 13.5562 17.5761 17.3516V18.1719L17.994 17.7659L18.0003 17.7722L18.3526 17.4196C18.3673 17.4049 18.3816 17.3902 18.393 17.3782L18.4245 17.3477C22.413 13.4728 28.7834 13.5668 32.6555 17.556Z" fill="#EEEEEE" stroke="#CCCCCC"/>
</svg>
