<svg width="50" height="48" viewBox="0 0 50 48" fill="none" xmlns="http://www.w3.org/2000/svg">
<path d="M47.7242 22.3951C47.4466 22.3951 47.2081 22.4954 47.0003 22.6428C46.7253 21.808 46.0957 21.102 45.2788 21.102C44.9428 21.102 44.632 21.2216 44.3451 21.4454C44.0947 20.7832 43.5381 20.2413 42.8023 20.2413C42.4828 20.2413 42.0883 20.3542 41.6832 20.7148C41.4302 20.06 40.8829 19.6343 40.1942 19.6343C39.6496 19.6343 38.8208 19.9039 37.9515 21.2076C37.7775 21.4899 36.3197 23.9312 36.6371 25.5497C36.3323 25.5417 36.0268 25.5457 35.7313 25.5756C34.3167 25.7157 33.2527 26.2656 32.6524 27.1662C31.2285 29.2994 31.2132 33.3393 31.2132 33.51C31.2132 33.5917 31.2285 33.6727 31.257 33.7484C31.7538 35.0348 32.5414 37.3692 32.5414 38.1589C32.5414 38.9486 31.7538 41.283 31.257 42.5694C31.1255 42.9121 31.2962 43.296 31.6382 43.4281C31.7166 43.458 31.7976 43.472 31.8773 43.472C32.143 43.472 32.3947 43.3099 32.4976 43.0462C32.6377 42.6836 33.8697 39.454 33.8697 38.1589C33.8697 36.9562 32.8071 34.0884 32.5428 33.3918C32.5567 32.7349 32.6783 29.5205 33.7581 27.9007C34.2058 27.2293 35.0798 26.9915 35.7339 26.9112C37.1054 26.7411 38.4788 27.1263 38.7046 27.3289C38.8872 27.562 39.0015 28.45 38.9291 28.8611H35.8621C35.5453 28.8611 35.273 29.0842 35.2113 29.3957L34.5471 32.7163C34.4814 33.0444 34.672 33.3712 34.9908 33.4774C35.4072 33.6156 36.3529 34.0486 36.6152 34.5062C37.0243 35.2175 37.1977 36.2635 37.1997 36.2734C37.2581 36.6347 37.5968 36.8818 37.9608 36.822C38.3227 36.7636 38.5684 36.4235 38.5107 36.0609C38.5014 36.0084 38.2988 34.7685 37.7662 33.8427C37.373 33.1587 36.5276 32.6865 35.9577 32.4321L36.4067 30.1893H39.1828C39.5155 30.1893 39.8044 30.0113 39.9963 29.7165C40.4254 30.0153 40.8252 30.0904 41.1094 30.0904C41.47 30.0904 41.7955 29.9735 42.077 29.7995C42.1355 29.8978 42.2019 29.9907 42.2823 30.0691C42.7286 30.5161 43.2094 30.7425 43.7115 30.7432C44.2773 30.7432 44.7581 30.4523 45.1228 30.0645C45.1447 30.0917 45.1619 30.1229 45.1865 30.1475C45.3599 30.3208 45.5412 30.4497 45.7264 30.5486C45.4933 31.5163 44.8923 33.7125 43.9439 35.1338C43.1935 36.2595 42.9371 36.4361 42.5506 36.7031C42.2703 36.8977 41.9203 37.1388 41.3704 37.6887C39.8828 39.1763 40.3995 43.3989 40.5183 44.2304C40.5655 44.5618 40.8491 44.8002 41.1745 44.8002C41.2057 44.8002 41.2376 44.7982 41.2701 44.7936C41.6321 44.7418 41.8851 44.4057 41.834 44.0424C41.5789 42.2473 41.5577 39.3802 42.3102 38.6284C42.7751 38.1635 43.0447 37.9776 43.307 37.7963C43.835 37.431 44.2023 37.1434 45.0497 35.871C46.2192 34.1177 46.882 31.4777 47.078 30.6091C47.5774 30.3892 47.9593 29.931 48.1784 29.4926C48.7223 28.4041 49.2131 24.9387 49.2131 24.3775C49.2111 23.5467 48.6945 22.3951 47.7242 22.3951ZM39.0712 21.9242C39.5441 21.2142 39.9724 20.9625 40.1942 20.9625C40.4028 20.9619 40.511 21.2607 40.511 21.5556C40.511 21.8844 40.2467 23.1037 39.8808 24.2673C39.8157 24.4545 39.7513 24.6465 39.6888 24.8444C39.55 25.2382 39.4026 25.6075 39.2532 25.907C39.2246 25.9648 39.2027 25.9973 39.1987 26.0119C39.0738 26.0066 38.7923 25.9302 38.152 25.6108C38.0451 25.5563 37.986 25.4826 37.9495 25.3525C37.7336 24.5993 38.4834 22.8825 39.0712 21.9242ZM41.1087 28.7628C40.9015 28.7628 40.699 28.602 40.5648 28.4686C40.1351 28.0382 40.7455 25.3863 41.8572 22.8819C42.2876 21.8053 42.6861 21.5696 42.8029 21.5696C42.9404 21.5696 43.1676 21.885 43.1682 22.2111C43.1543 22.4754 42.8142 23.8342 42.5287 24.956C42.2245 25.8339 41.9402 26.8414 41.8313 27.7559C41.7822 27.9744 41.7456 28.1524 41.7297 28.268C41.7038 28.3869 41.4362 28.7628 41.1087 28.7628ZM43.7121 29.4156C43.5408 29.4156 43.3502 29.2609 43.2213 29.1314C43.0845 28.9945 43.054 28.6313 43.1104 28.1212C43.224 27.6032 43.4564 26.6887 43.6862 25.7921C43.7208 25.658 43.75 25.5424 43.7819 25.4175C43.9891 24.8092 44.2368 24.1723 44.5144 23.546C44.8857 22.6196 45.2137 22.4303 45.2808 22.4303C45.4329 22.4303 45.8241 22.9616 45.8241 23.548C45.8214 23.7565 45.6441 24.6398 45.401 25.6347C45.1659 26.2975 44.9448 27.032 44.8259 27.7307C44.6937 28.1458 44.5642 28.5018 44.4493 28.7322C44.3072 29.0151 43.9844 29.4156 43.7121 29.4156ZM46.989 28.8989C46.8668 29.1433 46.621 29.4156 46.4636 29.4156C46.3806 29.4156 46.2571 29.3399 46.1263 29.2084C46.0027 29.063 46.0134 28.6273 46.1236 28.0329C46.3155 27.4265 46.5048 26.7299 46.6682 26.0617C46.8329 25.5882 47.0235 25.0994 47.2354 24.6226C47.4525 24.0786 47.6292 23.8522 47.7002 23.7665C47.7833 23.8874 47.8816 24.1364 47.8816 24.3755C47.8829 24.8597 47.3908 28.0947 46.989 28.8989Z" fill="#CCCCCC"/>
<path d="M29.2216 26.8685H23.5971C23.2484 26.3133 22.9907 25.681 23.0345 25.5263C23.4808 25.1849 26.4714 24.5746 28.9852 24.2053C29.1625 24.1794 29.3199 24.0838 29.4262 23.9397C29.5304 23.7955 29.5743 23.6156 29.5444 23.4396L29.3146 22.0595C30.9902 21.6345 33.2064 20.8335 33.2064 19.563C33.2064 19.0623 32.8066 18.6684 31.5421 17.4989C30.5771 16.6063 28.3184 14.517 28.5322 13.7685C30.077 8.36112 27.3089 4.7861 25.5224 3.13573C21.7408 -0.354277 12.5439 -1.08216 7.63134 1.71848C3.00766 4.35375 0.66394 8.79347 0.66394 14.9141C0.66394 20.4623 4.44152 27.5459 5.68345 29.8737C5.8269 30.142 5.93715 30.3499 6.00555 30.486C6.18885 30.8526 6.41997 31.8893 5.90527 34.7185C5.83952 35.0798 6.07927 35.4252 6.43989 35.4916C6.47974 35.4989 6.52025 35.5022 6.55944 35.5022C6.87424 35.5022 7.15384 35.2777 7.21228 34.9576C7.66389 32.4764 7.65725 30.8201 7.19368 29.8923C7.12196 29.7495 7.00573 29.5316 6.85564 29.2487C5.6529 26.9933 1.9922 20.1302 1.9922 14.9141C1.9922 9.22649 4.05168 5.28752 8.28751 2.87274C12.6183 0.402833 21.3184 1.06431 24.6205 4.11201C26.5299 5.87461 28.5369 8.917 27.2551 13.4032C26.8493 14.8238 28.4738 16.4695 30.6409 18.4732C31.0679 18.8683 31.5806 19.3432 31.8097 19.6075C31.4245 19.9894 29.9143 20.5752 28.4153 20.9066C28.07 20.9829 27.8455 21.3157 27.9033 21.6643L28.1251 22.9919C25.9082 23.3373 22.7569 23.9277 22.1114 24.5726C21.1225 25.5608 22.318 27.3872 22.7078 27.9231C22.832 28.0958 23.0319 28.1967 23.2444 28.1967H27.6715C27.4198 28.6052 27.2292 29.1073 27.2292 29.691C27.2292 32.1211 26.7158 32.8722 26.2835 33.0755C24.5806 33.8724 19.241 31.4025 16.2763 29.6585C15.9596 29.4725 15.5531 29.5781 15.3672 29.8936C15.1812 30.2104 15.2868 30.6175 15.6023 30.8028C15.9483 31.0067 17.4027 31.8475 19.1999 32.6803C18.8778 33.104 18.2581 34.0285 17.3376 35.8695C15.9609 38.6229 17.6929 40.2813 19.3685 41.8845C19.6143 42.1196 19.8666 42.362 20.119 42.6144C22.0078 44.5032 23.3022 47.0654 23.3155 47.0913C23.431 47.3224 23.6655 47.4566 23.9092 47.4566C24.0088 47.4566 24.1104 47.434 24.2054 47.3868C24.5335 47.2221 24.6663 46.823 24.5023 46.4956C24.4458 46.3833 23.1023 43.7188 21.0568 41.674C20.7971 41.4143 20.5381 41.1652 20.2857 40.9248C18.4627 39.1795 17.6259 38.261 18.5251 36.4632C19.7385 34.0358 20.374 33.3358 20.3986 33.3092C20.4212 33.286 20.4305 33.2568 20.4491 33.2315C22.7955 34.2091 25.3995 34.9556 26.846 34.2762C28.3795 33.5589 28.5575 31.3148 28.5575 29.691C28.5575 28.7559 29.5669 28.1004 29.5729 28.0958C29.8246 27.9391 29.9422 27.6342 29.8605 27.35C29.7781 27.0644 29.5171 26.8685 29.2216 26.8685Z" fill="#CCCCCC"/>
<path d="M6.13737 36.8498C5.78405 36.7615 5.42077 36.978 5.33244 37.334C5.22087 37.7816 4.96518 38.4059 4.57268 39.1895C4.40797 39.5176 4.54146 39.9168 4.86888 40.0815C4.96518 40.1286 5.06613 40.1512 5.16575 40.1512C5.40948 40.1512 5.64392 40.0171 5.76014 39.7846C6.20246 38.9013 6.48338 38.2053 6.62086 37.6554C6.70985 37.3001 6.49335 36.9395 6.13737 36.8498Z" fill="#CCCCCC"/>
<path d="M4.41133 40.9056C4.09454 40.721 3.68742 40.8272 3.50279 41.144C1.99654 43.7242 0.138305 46.3847 0.119709 46.4112C-0.0901566 46.7114 -0.0177661 47.1258 0.283086 47.3364C0.398644 47.4174 0.53147 47.4566 0.662969 47.4566C0.87217 47.4566 1.07805 47.3583 1.20756 47.173C1.22615 47.1458 3.11561 44.4427 4.64975 41.8141C4.83504 41.4973 4.72812 41.0909 4.41133 40.9056Z" fill="#CCCCCC"/>
<path d="M24.7551 11.6194L20.1062 10.2912C19.7542 10.1909 19.3862 10.3948 19.2853 10.7474C19.1844 11.1001 19.3889 11.4673 19.7416 11.5683L24.3905 12.8966C24.4509 12.9138 24.5127 12.9218 24.5724 12.9218C24.8613 12.9218 25.127 12.7312 25.2107 12.4396C25.3116 12.0876 25.1084 11.7197 24.7551 11.6194Z" fill="#CCCCCC"/>
<path d="M24.7426 13.2739L22.086 13.938C21.73 14.027 21.5142 14.3876 21.6025 14.7436C21.6782 15.0451 21.9485 15.2464 22.2461 15.2464C22.2999 15.2464 22.3537 15.2404 22.4081 15.2264L25.0647 14.5623C25.42 14.4733 25.6365 14.1127 25.5488 13.7567C25.4591 13.4014 25.0985 13.1849 24.7426 13.2739Z" fill="#CCCCCC"/>
<path d="M13.4471 21.7818C12.9915 22.3025 12.257 22.8836 11.9541 22.8836C11.5889 22.873 10.6259 21.7592 10.6259 20.8912C10.6259 20.5512 10.5475 20.1201 10.4565 19.6207C10.2261 18.3562 9.9106 16.6242 10.8464 16.0703C11.205 15.8591 11.5331 15.8046 11.8505 15.9049C12.5824 16.1373 13.1602 17.1196 13.3216 17.4789C13.471 17.813 13.8622 17.9637 14.1969 17.8156C14.5323 17.6668 14.6837 17.275 14.5356 16.9396C14.4526 16.7523 13.6849 15.0973 12.2583 14.6411C11.5769 14.4226 10.8543 14.5215 10.1696 14.9273C8.43755 15.9521 8.86592 18.3031 9.1495 19.8585C9.22588 20.2769 9.2976 20.6714 9.2976 20.8912C9.2976 22.2626 10.6717 24.2119 11.9541 24.2119C13.0307 24.2119 14.2188 22.9168 14.4459 22.6571C14.6877 22.3809 14.6598 21.9618 14.3835 21.72C14.1079 21.4783 13.6882 21.5055 13.4471 21.7818Z" fill="#CCCCCC"/>
<path d="M34.2494 17.5063C34.3417 17.5502 34.4386 17.5707 34.5349 17.5707C34.7833 17.5707 35.0211 17.4306 35.1353 17.1915L36.2271 14.8923C36.3845 14.5609 36.2431 14.1651 35.9117 14.0077C35.5803 13.8503 35.1845 13.9917 35.0271 14.3231L33.9352 16.6224C33.7772 16.9531 33.9186 17.3496 34.2494 17.5063Z" fill="#CCCCCC"/>
<path d="M42.5036 12.2575C42.7181 12.2575 42.9286 12.1539 43.0568 11.962L44.1493 10.3269C44.3532 10.0221 44.2709 9.60963 43.966 9.40574C43.6618 9.20119 43.2481 9.2842 43.0442 9.58904L41.9524 11.2241C41.7478 11.529 41.8308 11.9414 42.1357 12.1453C42.2486 12.2217 42.3774 12.2575 42.5036 12.2575Z" fill="#CCCCCC"/>
<path d="M36.8608 12.8341C36.9644 12.8939 37.078 12.9218 37.1896 12.9218C37.42 12.9218 37.6445 12.8016 37.7667 12.5871L40.4232 7.93816C40.6052 7.62004 40.4936 7.21425 40.1762 7.03228C39.8581 6.85164 39.4523 6.96122 39.2703 7.27934L36.6138 11.9283C36.4311 12.2464 36.5414 12.6522 36.8608 12.8341Z" fill="#CCCCCC"/>
<path d="M40.4626 18.5363C40.5928 18.7157 40.7954 18.8106 41.0019 18.8106C41.1367 18.8106 41.2729 18.7694 41.3911 18.6844L45.7245 15.5411C46.0214 15.3259 46.0878 14.9102 45.8733 14.614C45.6581 14.3164 45.2431 14.2507 44.9462 14.4659L40.6121 17.6092C40.3139 17.8237 40.2481 18.2395 40.4626 18.5363Z" fill="#CCCCCC"/>
<path d="M47.6436 14.1618C47.7731 14.1618 47.9039 14.1239 48.0182 14.0456L48.8576 13.4698C49.1598 13.2619 49.2362 12.8488 49.0296 12.546C48.8224 12.2445 48.4087 12.1668 48.1052 12.374L47.2664 12.9498C46.9642 13.1576 46.8871 13.5707 47.0944 13.8736C47.2232 14.0609 47.4317 14.1618 47.6436 14.1618Z" fill="#CCCCCC"/>
<path d="M39.9421 13.2438L37.9497 16.5644C37.7617 16.8792 37.8627 17.287 38.1781 17.4756C38.2837 17.54 38.4019 17.5706 38.5182 17.5706C38.744 17.5706 38.9638 17.4557 39.088 17.2485L41.0804 13.9278C41.2683 13.613 41.1674 13.2052 40.8519 13.0166C40.5385 12.8273 40.13 12.929 39.9421 13.2438Z" fill="#CCCCCC"/>
</svg>
