<svg width="30" height="30" viewBox="0 0 30 30" fill="none" xmlns="http://www.w3.org/2000/svg">
<rect width="30" height="30" rx="2" fill="white"/>
<rect x="0.5" y="0.5" width="29" height="29" rx="5.5" fill="white" stroke="#DDDDDD"/>
<path d="M15.0039 14.998V21.748" stroke="#7388B2" stroke-width="1.5" stroke-linecap="round" stroke-linejoin="round"/>
<path d="M21.2965 19.7907C22.028 19.3919 22.6059 18.7608 22.9389 17.9971C23.2719 17.2334 23.3412 16.3806 23.1357 15.5732C22.9301 14.7658 22.4616 14.0498 21.804 13.5382C21.1464 13.0267 20.3371 12.7487 19.504 12.7482H18.559C18.332 11.8701 17.9089 11.0549 17.3215 10.3639C16.7341 9.6729 15.9976 9.12404 15.1676 8.75861C14.3375 8.39318 13.4354 8.22068 12.5291 8.25407C11.6228 8.28746 10.7358 8.52588 9.93488 8.95141C9.13396 9.37693 8.43993 9.97848 7.90497 10.7108C7.37 11.4432 7.00802 12.2873 6.84623 13.1797C6.68445 14.0721 6.72708 14.9896 6.97091 15.8631C7.21474 16.7366 7.65343 17.5436 8.254 18.2232" stroke="#7388B2" stroke-width="1.5" stroke-linecap="round" stroke-linejoin="round"/>
<path d="M18.0039 17.998L15.0039 14.998L12.0039 17.998" stroke="#7388B2" stroke-width="1.5" stroke-linecap="round" stroke-linejoin="round"/>
</svg>
