<svg width="22" height="20" viewBox="0 0 22 20" fill="none" xmlns="http://www.w3.org/2000/svg">
<path d="M10.963 20L10.6767 19.9962C5.16001 19.8478 0.729483 15.4264 0.729483 10C0.729483 4.49 5.3141 2.62442e-06 10.963 3.72615e-06C16.6017 4.82589e-06 21.1965 4.49 21.1965 10C21.1965 15.52 16.6017 20 10.963 20ZM8.93677 14C9.24378 14.3 9.72475 14.3 10.0215 14L13.593 10.53C13.7363 10.39 13.8182 10.2 13.8182 10C13.8182 9.8 13.7363 9.61 13.593 9.47L10.0215 6C9.87825 5.85 9.68382 5.78 9.48938 5.78C9.28471 5.78 9.09027 5.85 8.93677 6C8.64 6.3 8.64 6.77 8.947 7.06L11.9659 10L8.947 12.94C8.64 13.23 8.64 13.71 8.93677 14Z" fill="#2196F5"/>
</svg>
