<svg width="60" height="63" viewBox="0 0 60 63" fill="none" xmlns="http://www.w3.org/2000/svg">
<path d="M59.9918 12.8954C60.02 12.636 59.9675 12.3742 59.8416 12.1456C59.7158 11.917 59.5226 11.7327 59.2883 11.6178L35.782 0.128925C35.6325 0.055793 35.4701 0.0128193 35.304 0.0024585C35.1379 -0.00790229 34.9714 0.0145519 34.814 0.0685395C34.6566 0.122527 34.5113 0.206991 34.3866 0.317108C34.2618 0.427225 34.1599 0.560837 34.0868 0.710319L34.0864 0.711201L25.27 18.7496C25.1229 19.0518 25.1015 19.3999 25.2107 19.7178C25.3198 20.0356 25.5506 20.2972 25.8523 20.4452L49.3586 31.9341C49.6607 32.0812 50.0089 32.1025 50.3267 31.9934C50.6446 31.8842 50.9062 31.6535 51.0542 31.3518L59.8706 13.3134C59.935 13.1821 59.976 13.0407 59.9918 12.8954Z" fill="#F2F2F2"/>
<path d="M46.2214 52.9315H15.7208C15.3368 52.9311 14.9687 52.7783 14.6971 52.5068C14.4256 52.2353 14.2729 51.8671 14.2725 51.4831V10.0773C14.2729 9.69327 14.4256 9.32512 14.6971 9.0536C14.9687 8.78207 15.3368 8.62934 15.7208 8.62891H46.2214C46.6054 8.62934 46.9736 8.78207 47.2451 9.0536C47.5166 9.32512 47.6694 9.69327 47.6698 10.0773V51.4831C47.6694 51.8671 47.5166 52.2353 47.2451 52.5068C46.9736 52.7783 46.6054 52.9311 46.2214 52.9315Z" fill="white"/>
<path d="M23.8112 20.9759C24.9102 20.9759 25.8011 20.085 25.8011 18.986C25.8011 17.887 24.9102 16.9961 23.8112 16.9961C22.7122 16.9961 21.8213 17.887 21.8213 18.986C21.8213 20.085 22.7122 20.9759 23.8112 20.9759Z" fill="#E6E6E6"/>
<path d="M20.7781 24.4253C21.0593 24.5851 21.3535 24.7207 21.6577 24.8306L21.7115 24.8492C22.3242 25.0644 22.9689 25.1739 23.6183 25.1731C23.7489 25.1731 23.8748 25.1686 23.9924 25.1597C24.2785 25.1421 24.5629 25.1029 24.8431 25.0423C24.9969 25.0087 25.1502 24.9686 25.2985 24.923C25.3344 24.9125 25.3676 24.9021 25.404 24.8907C26.0084 24.6947 26.5764 24.4003 27.0851 24.0195C27.0443 23.9423 26.9996 23.8672 26.9512 23.7945C26.6896 23.3948 26.3325 23.0667 25.9122 22.8398C25.4919 22.613 25.0217 22.4945 24.5441 22.4951H23.4968C22.9444 22.4952 22.4036 22.6541 21.9389 22.9528C21.4743 23.2515 21.1052 23.6775 20.8758 24.18C20.8391 24.2601 20.8065 24.3419 20.7781 24.4253Z" fill="#E6E6E6"/>
<path d="M24.485 24.9929C24.4182 24.9978 24.3539 25.0204 24.2986 25.0583C24.5794 25.0408 24.8584 25.002 25.1334 24.9424L24.485 24.9929Z" fill="#2F2E41"/>
<path d="M23.931 13.5869C22.6494 13.587 21.4037 14.0102 20.3872 14.7908C19.3707 15.5714 18.6403 16.6657 18.3094 17.9039C17.9785 19.142 18.0655 20.4548 18.5571 21.6384C19.0486 22.822 19.9171 23.8103 21.0278 24.4498C21.3226 24.6205 21.6321 24.7645 21.9526 24.8802L22.0071 24.8991C22.6252 25.1161 23.2758 25.2266 23.931 25.2258C24.0577 25.2258 24.1844 25.2216 24.3091 25.2122C24.5976 25.1945 24.8843 25.1549 25.1668 25.0939C25.325 25.0593 25.48 25.0185 25.6266 24.9734C25.6622 24.9629 25.6957 24.9525 25.7324 24.941C27.0496 24.5119 28.1706 23.6271 28.8938 22.4456C29.617 21.264 29.8951 19.8632 29.6781 18.495C29.461 17.1268 28.763 15.8809 27.7096 14.9813C26.6561 14.0816 25.3163 13.5872 23.931 13.5869ZM27.3075 23.7659C26.8055 24.1533 26.2404 24.4512 25.6371 24.6466C25.6046 24.6571 25.5711 24.6676 25.5376 24.6781C25.3983 24.721 25.2517 24.7587 25.1009 24.7912C24.8336 24.8495 24.5622 24.8873 24.2892 24.9043C24.1708 24.9127 24.0504 24.9169 23.931 24.9169C23.3108 24.9172 22.6951 24.8128 22.1097 24.6079L22.0584 24.5901C21.7396 24.4755 21.4324 24.3311 21.1409 24.1586C20.1256 23.5608 19.3288 22.6532 18.8676 21.569C18.4063 20.4849 18.305 19.2814 18.5785 18.1353C18.8519 16.9893 19.4858 15.9612 20.3869 15.2021C21.2879 14.4431 22.4087 13.993 23.5845 13.9181C24.7603 13.8432 25.9292 14.1475 26.9193 14.7861C27.9094 15.4247 28.6685 16.3641 29.0852 17.4662C29.5018 18.5682 29.554 19.7749 29.234 20.9088C28.9141 22.0427 28.2388 23.0441 27.3075 23.7659Z" fill="#CCCCCC"/>
<path d="M46.2214 52.9315H15.7208C15.3368 52.9311 14.9687 52.7783 14.6971 52.5068C14.4256 52.2353 14.2729 51.8671 14.2725 51.4831V10.0773C14.2729 9.69327 14.4256 9.32512 14.6971 9.0536C14.9687 8.78207 15.3368 8.62934 15.7208 8.62891H46.2214C46.6054 8.62934 46.9736 8.78207 47.2451 9.0536C47.5166 9.32512 47.6694 9.69327 47.6698 10.0773V51.4831C47.6694 51.8671 47.5166 52.2353 47.2451 52.5068C46.9736 52.7783 46.6054 52.9311 46.2214 52.9315ZM15.7208 8.7993C15.382 8.79968 15.0572 8.93445 14.8176 9.17403C14.578 9.41361 14.4432 9.73844 14.4429 10.0773V51.4831C14.4432 51.822 14.578 52.1468 14.8176 52.3864C15.0572 52.6259 15.382 52.7607 15.7208 52.7611H46.2214C46.5603 52.7607 46.8851 52.6259 47.1247 52.3864C47.3643 52.1468 47.499 51.822 47.4994 51.4831V10.0773C47.499 9.73844 47.3643 9.41361 47.1247 9.17403C46.8851 8.93445 46.5603 8.79968 46.2214 8.7993L15.7208 8.7993Z" fill="#CCCCCC"/>
<path d="M40.3173 19.3831H31.6867C31.5056 19.3831 31.3319 19.3112 31.2039 19.1832C31.0758 19.0551 31.0039 18.8814 31.0039 18.7004C31.0039 18.5193 31.0758 18.3456 31.2039 18.2176C31.3319 18.0895 31.5056 18.0176 31.6867 18.0176H40.3173C40.4984 18.0176 40.6721 18.0895 40.8001 18.2176C40.9282 18.3456 41.0001 18.5193 41.0001 18.7004C41.0001 18.8814 40.9282 19.0551 40.8001 19.1832C40.6721 19.3112 40.4984 19.3831 40.3173 19.3831Z" fill="#E6E6E6"/>
<path d="M43.1338 21.6878H31.6867C31.5056 21.6878 31.3319 21.6159 31.2039 21.4878C31.0758 21.3598 31.0039 21.1861 31.0039 21.005C31.0039 20.824 31.0758 20.6503 31.2039 20.5222C31.3319 20.3942 31.5056 20.3223 31.6867 20.3223H43.1338C43.3149 20.3223 43.4885 20.3942 43.6166 20.5222C43.7446 20.6503 43.8166 20.824 43.8166 21.005C43.8166 21.1861 43.7446 21.3598 43.6166 21.4878C43.4885 21.6159 43.3149 21.6878 43.1338 21.6878Z" fill="#E6E6E6"/>
<path d="M40.3042 30.5257H18.8088C18.6277 30.5257 18.454 30.4538 18.326 30.3257C18.1979 30.1977 18.126 30.024 18.126 29.8429C18.126 29.6619 18.1979 29.4882 18.326 29.3601C18.454 29.2321 18.6277 29.1602 18.8088 29.1602H40.3042C40.4853 29.1602 40.6589 29.2321 40.787 29.3601C40.915 29.4882 40.987 29.6619 40.987 29.8429C40.987 30.024 40.915 30.1977 40.787 30.3257C40.6589 30.4538 40.4853 30.5257 40.3042 30.5257Z" fill="#E6E6E6"/>
<path d="M43.1206 32.8304H18.8088C18.6277 32.8304 18.454 32.7585 18.326 32.6304C18.1979 32.5024 18.126 32.3287 18.126 32.1476C18.126 31.9665 18.1979 31.7929 18.326 31.6648C18.454 31.5368 18.6277 31.4648 18.8088 31.4648H43.1206C43.3017 31.4648 43.4754 31.5368 43.6034 31.6648C43.7315 31.7929 43.8034 31.9665 43.8034 32.1476C43.8034 32.3287 43.7315 32.5024 43.6034 32.6304C43.4754 32.7585 43.3017 32.8304 43.1206 32.8304Z" fill="#E6E6E6"/>
<path d="M40.3042 38.1263H18.8088C18.6277 38.1263 18.454 38.0544 18.326 37.9263C18.1979 37.7983 18.126 37.6246 18.126 37.4435C18.126 37.2624 18.1979 37.0888 18.326 36.9607C18.454 36.8327 18.6277 36.7607 18.8088 36.7607H40.3042C40.4853 36.7607 40.6589 36.8327 40.787 36.9607C40.915 37.0888 40.987 37.2624 40.987 37.4435C40.987 37.6246 40.915 37.7983 40.787 37.9263C40.6589 38.0544 40.4853 38.1263 40.3042 38.1263Z" fill="#E6E6E6"/>
<path d="M43.1206 40.431H18.8088C18.6277 40.431 18.454 40.3591 18.326 40.231C18.1979 40.103 18.126 39.9293 18.126 39.7482C18.126 39.5671 18.1979 39.3935 18.326 39.2654C18.454 39.1374 18.6277 39.0654 18.8088 39.0654H43.1206C43.3017 39.0654 43.4754 39.1374 43.6034 39.2654C43.7315 39.3935 43.8034 39.5671 43.8034 39.7482C43.8034 39.9293 43.7315 40.103 43.6034 40.231C43.4754 40.3591 43.3017 40.431 43.1206 40.431Z" fill="#E6E6E6"/>
<path d="M40.3042 45.7279H18.8088C18.6277 45.7279 18.454 45.6559 18.326 45.5279C18.1979 45.3998 18.126 45.2262 18.126 45.0451C18.126 44.864 18.1979 44.6903 18.326 44.5623C18.454 44.4342 18.6277 44.3623 18.8088 44.3623H40.3042C40.4853 44.3623 40.6589 44.4342 40.787 44.5623C40.915 44.6903 40.987 44.864 40.987 45.0451C40.987 45.2262 40.915 45.3998 40.787 45.5279C40.6589 45.6559 40.4853 45.7279 40.3042 45.7279Z" fill="#E6E6E6"/>
<path d="M43.1206 48.0326H18.8088C18.6277 48.0326 18.454 47.9606 18.326 47.8326C18.1979 47.7045 18.126 47.5309 18.126 47.3498C18.126 47.1687 18.1979 46.995 18.326 46.867C18.454 46.7389 18.6277 46.667 18.8088 46.667H43.1206C43.3016 46.6672 43.475 46.7392 43.6029 46.8673C43.7308 46.9953 43.8026 47.1688 43.8026 47.3498C43.8026 47.5307 43.7308 47.7043 43.6029 47.8323C43.475 47.9603 43.3016 48.0323 43.1206 48.0326Z" fill="#E6E6E6"/>
<path d="M58.9459 24.7303C58.9741 24.4709 58.9216 24.2091 58.7957 23.9805C58.6699 23.7519 58.4767 23.5677 58.2424 23.4527L34.7361 11.9639C34.5866 11.8908 34.4242 11.8478 34.2581 11.8374C34.092 11.8271 33.9255 11.8495 33.7681 11.9035C33.6107 11.9575 33.4654 12.042 33.3407 12.1521C33.2159 12.2622 33.114 12.3958 33.0409 12.5453L33.0405 12.5462L24.2241 30.5846C24.077 30.8867 24.0556 31.2349 24.1648 31.5527C24.2739 31.8706 24.5047 32.1322 24.8064 32.2802L48.3127 43.769C48.6148 43.9162 48.963 43.9375 49.2808 43.8284C49.5987 43.7192 49.8603 43.4885 50.0083 43.1867L58.8247 25.1483C58.8891 25.0171 58.9301 24.8757 58.9459 24.7303Z" fill="white"/>
<path d="M58.9459 24.7303C58.9741 24.4709 58.9216 24.2091 58.7957 23.9805C58.6699 23.7519 58.4767 23.5677 58.2424 23.4527L34.7361 11.9639C34.5866 11.8908 34.4242 11.8478 34.2581 11.8374C34.092 11.8271 33.9255 11.8495 33.7681 11.9035C33.6107 11.9575 33.4654 12.042 33.3407 12.1521C33.2159 12.2622 33.114 12.3958 33.0409 12.5453L33.0405 12.5462L24.2241 30.5846C24.077 30.8867 24.0556 31.2349 24.1648 31.5527C24.2739 31.8706 24.5047 32.1322 24.8064 32.2802L48.3127 43.769C48.6148 43.9162 48.963 43.9375 49.2808 43.8284C49.5987 43.7192 49.8603 43.4885 50.0083 43.1867L58.8247 25.1483C58.8891 25.0171 58.9301 24.8757 58.9459 24.7303ZM49.8743 43.1213C49.7437 43.3875 49.5129 43.5912 49.2324 43.6875C48.952 43.7838 48.6448 43.7649 48.3782 43.635L24.8719 32.1462C24.6056 32.0157 24.402 31.7848 24.3057 31.5044C24.2093 31.2239 24.2282 30.9167 24.3581 30.6501L33.1745 12.6117C33.305 12.3454 33.5358 12.1418 33.8163 12.0454C34.0968 11.9491 34.404 11.968 34.6706 12.0979L58.1769 23.5867C58.4432 23.7173 58.6468 23.9481 58.7431 24.2286C58.8394 24.509 58.8206 24.8162 58.6907 25.0828L49.8743 43.1213Z" fill="#3F3D56"/>
<path d="M56.3823 25.5503L50.2261 38.146C50.185 38.2301 50.1122 38.2944 50.0237 38.3248C49.9352 38.3553 49.8383 38.3493 49.7542 38.3082L28.372 27.8576C28.3567 27.8503 28.3421 27.8417 28.3283 27.8318C28.2582 27.7841 28.2076 27.7127 28.1859 27.6307C28.1641 27.5488 28.1726 27.4617 28.2099 27.3855L34.3661 14.7898C34.3864 14.7482 34.4148 14.7109 34.4495 14.6803C34.4842 14.6496 34.5246 14.626 34.5684 14.611C34.6123 14.5959 34.6586 14.5896 34.7049 14.5925C34.7511 14.5953 34.7963 14.6072 34.838 14.6276L56.2201 25.0782C56.3042 25.1193 56.3686 25.1921 56.399 25.2806C56.4294 25.3691 56.4234 25.466 56.3824 25.5501L56.3823 25.5503Z" fill="#E6E6E6"/>
<path d="M37.6098 24.9109C39.32 24.9109 40.7064 23.5246 40.7064 21.8144C40.7064 20.1042 39.32 18.7178 37.6098 18.7178C35.8996 18.7178 34.5132 20.1042 34.5132 21.8144C34.5132 23.5246 35.8996 24.9109 37.6098 24.9109Z" fill="white"/>
<path d="M42.1402 34.6506L28.4921 27.98C28.4749 27.9719 28.4585 27.9622 28.4431 27.9511L40.3627 19.9252C40.4361 19.8748 40.5216 19.8448 40.6104 19.8383C40.6992 19.8317 40.7881 19.8489 40.8681 19.888C40.9482 19.9271 41.0163 19.9867 41.0658 20.0608C41.1152 20.1349 41.144 20.2208 41.1494 20.3097L41.8142 29.9302L41.8463 30.3906L42.1402 34.6506Z" fill="#3F3D56"/>
<path opacity="0.2" d="M42.1441 34.6511L37.4844 32.3735L41.3958 30.1689L41.6774 30.0102L41.8182 29.9307L41.8502 30.3911L42.1441 34.6511Z" fill="black"/>
<path d="M49.7439 38.3653L37.9395 32.5958L41.8509 30.3912L42.1325 30.2323L47.2296 27.3592C47.5637 27.1709 48.0424 27.383 48.151 27.7432C48.1582 27.7677 48.1638 27.7926 48.1678 27.8177L49.7439 38.3653Z" fill="#3F3D56"/>
<path d="M13.3214 39.4644L14.6053 39.4643L15.2162 34.5117L13.321 34.5118L13.3214 39.4644Z" fill="#FFB8B8"/>
<path d="M12.9937 39.046L15.5223 39.0459C15.7339 39.0459 15.9436 39.0876 16.1391 39.1685C16.3346 39.2495 16.5122 39.3682 16.6619 39.5179C16.8115 39.6675 16.9302 39.8451 17.0112 40.0407C17.0922 40.2362 17.1339 40.4457 17.1339 40.6573V40.7097L12.9937 40.7098L12.9937 39.046Z" fill="#2F2E41"/>
<path d="M3.33936 38.6468L4.66967 38.9069L6.30642 33.8997L4.34311 33.5156L3.33936 38.6468Z" fill="#FFB8B8"/>
<path d="M3.0856 38.1465L5.70542 38.6589L5.70552 38.659C5.92477 38.7019 6.13343 38.7875 6.31957 38.911C6.50572 39.0346 6.66571 39.1936 6.79041 39.3789C6.91511 39.5643 7.00208 39.7724 7.04635 39.9914C7.09062 40.2103 7.09133 40.4359 7.04843 40.6551L7.03781 40.7094L2.74841 39.8703L3.0856 38.1465Z" fill="#2F2E41"/>
<path d="M55.2785 62.2411H3.59679C2.68048 62.24 1.80199 61.8756 1.15406 61.2276C0.506123 60.5797 0.14166 59.7012 0.140625 58.7849V30.4025C0.14166 29.4861 0.506123 28.6077 1.15406 27.9597C1.80199 27.3118 2.68048 26.9473 3.59679 26.9463H9.93338C10.7932 26.9455 11.6222 27.266 12.2579 27.8449L19.1296 32.7517C19.5776 33.1611 20.1627 33.3879 20.7695 33.3873H55.5994C56.0575 33.3873 56.5111 33.4784 56.9337 33.6553C57.3563 33.8321 57.7395 34.0912 58.0611 34.4175C58.3826 34.7438 58.6361 35.1308 58.8068 35.556C58.9775 35.9811 59.0619 36.4359 59.0552 36.894L58.7343 58.8354C58.7173 59.742 58.3462 60.606 57.7004 61.2424C57.0545 61.8789 56.1852 62.2374 55.2785 62.2411Z" fill="white"/>
<path d="M54.8192 60.5639H3.90239C3.46035 60.5634 3.03656 60.3876 2.72399 60.075C2.41143 59.7625 2.23561 59.3387 2.23511 58.8966V30.0501C2.23561 29.6081 2.41143 29.1843 2.72399 28.8717C3.03656 28.5591 3.46035 28.3833 3.90239 28.3828C4.29336 28.3833 4.6682 28.5388 4.94466 28.8152C5.22113 29.0917 5.37664 29.4665 5.37708 29.8575V56.9067C5.37755 57.321 5.54232 57.7182 5.83526 58.0111C6.12819 58.304 6.52536 58.4688 6.93963 58.4693H54.6472C54.8842 58.4666 55.1153 58.5434 55.3035 58.6875C55.4917 58.8315 55.6263 59.0345 55.6857 59.2639C55.7522 59.4815 55.7439 59.7151 55.6622 59.9274C55.5804 60.1397 55.4299 60.3185 55.2346 60.4353C55.1108 60.5159 54.9669 60.5605 54.8192 60.5639Z" fill="#F2F2F2"/>
<path d="M29.824 46.7107L29.6899 46.5766C29.6622 46.5506 29.6459 46.5146 29.6446 46.4766C29.6434 46.4385 29.6573 46.4016 29.6833 46.3738C29.6854 46.3715 29.6876 46.3693 29.6899 46.3671L30.8661 45.1899C30.879 45.1762 30.8944 45.1651 30.9116 45.1573C30.9287 45.1495 30.9473 45.1452 30.9661 45.1446C30.9849 45.144 31.0037 45.1471 31.0213 45.1537C31.039 45.1604 31.0551 45.1704 31.0689 45.1833C31.0712 45.1854 31.0734 45.1876 31.0755 45.1899L32.2517 46.3661C32.2654 46.3794 32.2764 46.3952 32.2841 46.4127C32.2917 46.4303 32.2958 46.4491 32.2961 46.4683C32.2965 46.4874 32.293 46.5064 32.286 46.5242C32.279 46.5419 32.2686 46.5582 32.2553 46.5719L32.2517 46.5755L32.1176 46.7096C32.1044 46.7234 32.0885 46.7344 32.071 46.742C32.0534 46.7496 32.0346 46.7537 32.0155 46.7541C31.9963 46.7544 31.9774 46.7509 31.9596 46.7439C31.9418 46.7369 31.9255 46.7265 31.9118 46.7132L31.9082 46.7096L31.2127 45.9765V47.7161C31.2129 47.7351 31.2093 47.7539 31.2021 47.7715C31.195 47.7891 31.1845 47.8051 31.1712 47.8186C31.1578 47.8321 31.142 47.8429 31.1245 47.8503C31.107 47.8576 31.0882 47.8615 31.0693 47.8617L31.0682 47.8617H30.8745C30.8358 47.8617 30.7988 47.8463 30.7715 47.819C30.7442 47.7917 30.7289 47.7547 30.7289 47.7161V45.9786L30.0335 46.7117C30.0065 46.7393 29.9697 46.7551 29.9311 46.7556C29.8925 46.7561 29.8552 46.7413 29.8276 46.7143L29.824 46.7107Z" fill="#6C63FF"/>
<path d="M30.9667 44.1208C31.4387 44.1208 31.9002 44.2608 32.2927 44.5231C32.6853 44.7854 32.9912 45.1581 33.1718 45.5943C33.3525 46.0304 33.3998 46.5103 33.3077 46.9733C33.2156 47.4363 32.9882 47.8616 32.6544 48.1954C32.3206 48.5293 31.8953 48.7566 31.4323 48.8487C30.9693 48.9408 30.4894 48.8935 30.0533 48.7128C29.6171 48.5322 29.2444 48.2263 28.9821 47.8337C28.7198 47.4412 28.5798 46.9798 28.5798 46.5077C28.5804 45.8748 28.832 45.268 29.2795 44.8205C29.727 44.373 30.3338 44.1214 30.9667 44.1208ZM30.9667 43.8066C30.4325 43.8066 29.9102 43.9651 29.4661 44.2618C29.0219 44.5586 28.6757 44.9805 28.4712 45.474C28.2668 45.9676 28.2133 46.5107 28.3175 47.0346C28.4217 47.5586 28.679 48.0399 29.0567 48.4176C29.4345 48.7954 29.9158 49.0526 30.4397 49.1568C30.9637 49.2611 31.5068 49.2076 32.0003 49.0031C32.4939 48.7987 32.9157 48.4525 33.2125 48.0083C33.5093 47.5641 33.6677 47.0419 33.6677 46.5077C33.6677 45.7913 33.3831 45.1043 32.8766 44.5978C32.3701 44.0912 31.683 43.8066 30.9667 43.8066Z" fill="#3F3D56"/>
<path d="M55.2785 62.2411H3.59679C2.68048 62.24 1.80199 61.8756 1.15406 61.2276C0.506123 60.5797 0.14166 59.7012 0.140625 58.7849V30.4025C0.14166 29.4861 0.506123 28.6077 1.15406 27.9597C1.80199 27.3118 2.68048 26.9473 3.59679 26.9463H9.93338C10.7932 26.9455 11.6222 27.266 12.2579 27.8449L19.1296 32.7517C19.5776 33.1611 20.1627 33.3879 20.7695 33.3873H55.5994C56.0575 33.3873 56.5111 33.4784 56.9337 33.6553C57.3563 33.8321 57.7395 34.0912 58.0611 34.4175C58.3826 34.7438 58.6361 35.1308 58.8068 35.556C58.9775 35.9811 59.0619 36.4359 59.0552 36.894L58.7343 58.8354C58.7173 59.742 58.3462 60.606 57.7004 61.2424C57.0545 61.8789 56.1852 62.2374 55.2785 62.2411ZM3.59679 27.1558C2.73601 27.1567 1.91077 27.4991 1.30211 28.1078C0.693445 28.7164 0.351068 29.5417 0.35009 30.4025V58.7849C0.351068 59.6457 0.693445 60.4709 1.30211 61.0796C1.91077 61.6883 2.73601 62.0306 3.59679 62.0316H55.2785C56.1303 62.0281 56.9469 61.6914 57.5536 61.0935C58.1603 60.4956 58.5089 59.684 58.5248 58.8324L58.8458 36.891C58.852 36.4606 58.7727 36.0334 58.6124 35.634C58.4521 35.2346 58.214 34.8711 57.9119 34.5646C57.6098 34.258 57.2498 34.0146 56.8528 33.8485C56.4558 33.6823 56.0297 33.5968 55.5994 33.5968H20.7695C20.1126 33.5973 19.4791 33.3527 18.9931 32.9107L12.1214 28.0038C11.5237 27.4576 10.7431 27.1551 9.93338 27.1558H3.59679Z" fill="#3F3D56"/>
</svg>
